%TF.GenerationSoftware,KiCad,Pcbnew,7.0.9*%
%TF.CreationDate,2026-01-17T17:13:48-05:00*%
%TF.ProjectId,levelConversionOpAmp,6c657665-6c43-46f6-9e76-657273696f6e,rev?*%
%TF.SameCoordinates,Original*%
%TF.FileFunction,Copper,L2,Bot*%
%TF.FilePolarity,Positive*%
%FSLAX46Y46*%
G04 Gerber Fmt 4.6, Leading zero omitted, Abs format (unit mm)*
G04 Created by KiCad (PCBNEW 7.0.9) date 2026-01-17 17:13:48*
%MOMM*%
%LPD*%
G01*
G04 APERTURE LIST*
%TA.AperFunction,ComponentPad*%
%ADD10R,1.600000X1.600000*%
%TD*%
%TA.AperFunction,ComponentPad*%
%ADD11C,1.600000*%
%TD*%
%TA.AperFunction,ComponentPad*%
%ADD12R,2.100000X2.100000*%
%TD*%
%TA.AperFunction,ComponentPad*%
%ADD13C,2.100000*%
%TD*%
%TA.AperFunction,ComponentPad*%
%ADD14C,2.340000*%
%TD*%
%TA.AperFunction,ComponentPad*%
%ADD15R,1.500000X1.500000*%
%TD*%
%TA.AperFunction,ComponentPad*%
%ADD16C,1.500000*%
%TD*%
%TA.AperFunction,ViaPad*%
%ADD17C,0.500000*%
%TD*%
%TA.AperFunction,Conductor*%
%ADD18C,0.500000*%
%TD*%
G04 APERTURE END LIST*
D10*
%TO.P,C3,1*%
%TO.N,V+*%
X153612195Y-109982000D03*
D11*
%TO.P,C3,2*%
%TO.N,GND*%
X151112195Y-109982000D03*
%TD*%
D10*
%TO.P,C1,1*%
%TO.N,Net-(U1B-+)*%
X143865600Y-109524800D03*
D11*
%TO.P,C1,2*%
%TO.N,SIGIN*%
X141365600Y-109524800D03*
%TD*%
D12*
%TO.P,J3,1,Pin_1*%
%TO.N,SIGOUT*%
X167386000Y-109220000D03*
D13*
%TO.P,J3,2,Pin_2*%
%TO.N,GND*%
X167386000Y-111760000D03*
%TD*%
D12*
%TO.P,J2,1,Pin_1*%
%TO.N,GND*%
X133985000Y-112141000D03*
D13*
%TO.P,J2,2,Pin_2*%
%TO.N,SIGIN*%
X133985000Y-109601000D03*
%TD*%
%TO.P,J1,2,Pin_2*%
%TO.N,+48V*%
X135305800Y-131191000D03*
D12*
%TO.P,J1,1,Pin_1*%
%TO.N,GND*%
X135305800Y-133731000D03*
%TD*%
D14*
%TO.P,RV1,1,1*%
%TO.N,Net-(C4-Pad1)*%
X169084000Y-131231000D03*
%TO.P,RV1,2,2*%
%TO.N,Net-(R3-Pad1)*%
X164084000Y-133731000D03*
%TO.P,RV1,3,3*%
%TO.N,unconnected-(RV1-Pad3)*%
X159084000Y-131231000D03*
%TD*%
D15*
%TO.P,Q2,1,E*%
%TO.N,V+*%
X140436600Y-118562800D03*
D16*
%TO.P,Q2,2,B*%
%TO.N,Net-(Q1-E)*%
X137896600Y-118562800D03*
%TO.P,Q2,3,C*%
%TO.N,+48V*%
X135356600Y-118562800D03*
%TD*%
D15*
%TO.P,Q1,1,E*%
%TO.N,Net-(Q1-E)*%
X144145000Y-128397000D03*
D16*
%TO.P,Q1,2,B*%
%TO.N,Net-(Q1-B)*%
X144145000Y-125857000D03*
%TO.P,Q1,3,C*%
%TO.N,+48V*%
X144145000Y-123317000D03*
%TD*%
D10*
%TO.P,C6,1*%
%TO.N,Net-(U1A-+)*%
X151257000Y-130791606D03*
D11*
%TO.P,C6,2*%
%TO.N,GND*%
X151257000Y-133291606D03*
%TD*%
D10*
%TO.P,C4,1*%
%TO.N,Net-(C4-Pad1)*%
X167436800Y-122624194D03*
D11*
%TO.P,C4,2*%
%TO.N,SIGOUT*%
X167436800Y-120124194D03*
%TD*%
D17*
%TO.N,Net-(Q1-E)*%
X137058400Y-121158000D03*
X137922000Y-124256800D03*
%TO.N,Net-(U1A-+)*%
X143917000Y-133731000D03*
%TO.N,V+*%
X157430000Y-119176800D03*
X144627600Y-117931600D03*
X142938900Y-115214400D03*
%TO.N,+48V*%
X132866800Y-122453400D03*
%TD*%
D18*
%TO.N,SIGIN*%
X133985000Y-109601000D02*
X141289400Y-109601000D01*
X141289400Y-109601000D02*
X141365600Y-109524800D01*
%TO.N,Net-(Q1-E)*%
X137033000Y-121183400D02*
X137058400Y-121158000D01*
X137922000Y-124256800D02*
X137922000Y-122072400D01*
X137922000Y-122072400D02*
X137033000Y-121183400D01*
%TO.N,Net-(U1A-+)*%
X143917000Y-133731000D02*
X148317606Y-133731000D01*
X148317606Y-133731000D02*
X151257000Y-130791606D01*
%TO.N,V+*%
X153612195Y-109982000D02*
X153612195Y-115358995D01*
X153612195Y-115358995D02*
X157430000Y-119176800D01*
X142938900Y-115214400D02*
X142938900Y-116242900D01*
X142938900Y-116242900D02*
X144627600Y-117931600D01*
X140436600Y-118562800D02*
X140436600Y-117716700D01*
X140436600Y-117716700D02*
X142938900Y-115214400D01*
X153612195Y-109982000D02*
X145031395Y-118562800D01*
X145031395Y-118562800D02*
X140436600Y-118562800D01*
%TO.N,+48V*%
X135356600Y-118562800D02*
X136199543Y-118562800D01*
X136199543Y-118562800D02*
X140953743Y-123317000D01*
X140953743Y-123317000D02*
X144145000Y-123317000D01*
X132866800Y-122453400D02*
X132866800Y-121052600D01*
X132866800Y-121052600D02*
X135356600Y-118562800D01*
X135305800Y-131191000D02*
X132866800Y-128752000D01*
X132866800Y-128752000D02*
X132866800Y-122453400D01*
%TD*%
%TA.AperFunction,Conductor*%
%TO.N,V+*%
G36*
X173831739Y-97809385D02*
G01*
X173877494Y-97862189D01*
X173888700Y-97913700D01*
X173888700Y-144656300D01*
X173869015Y-144723339D01*
X173816211Y-144769094D01*
X173764700Y-144780300D01*
X129968500Y-144780300D01*
X129901461Y-144760615D01*
X129855706Y-144707811D01*
X129844500Y-144656300D01*
X129844500Y-141291763D01*
X135300587Y-141291763D01*
X135330213Y-141561013D01*
X135330215Y-141561024D01*
X135391360Y-141794905D01*
X135398728Y-141823088D01*
X135504670Y-142072390D01*
X135566676Y-142173990D01*
X135645779Y-142303605D01*
X135645786Y-142303615D01*
X135819053Y-142511819D01*
X135819059Y-142511824D01*
X135932448Y-142613420D01*
X136020798Y-142692582D01*
X136246710Y-142842044D01*
X136491976Y-142957020D01*
X136491983Y-142957022D01*
X136491985Y-142957023D01*
X136751357Y-143035057D01*
X136751364Y-143035058D01*
X136751369Y-143035060D01*
X137019361Y-143074500D01*
X137019366Y-143074500D01*
X137222436Y-143074500D01*
X137273933Y-143070730D01*
X137424956Y-143059677D01*
X137537558Y-143034593D01*
X137689346Y-143000782D01*
X137689348Y-143000781D01*
X137689353Y-143000780D01*
X137942358Y-142904014D01*
X138178577Y-142771441D01*
X138392977Y-142605888D01*
X138580986Y-142410881D01*
X138738599Y-142190579D01*
X138812587Y-142046669D01*
X138862449Y-141949690D01*
X138862451Y-141949684D01*
X138862456Y-141949675D01*
X138949918Y-141693305D01*
X138999119Y-141426933D01*
X139000346Y-141393363D01*
X165300587Y-141393363D01*
X165330213Y-141662613D01*
X165330215Y-141662624D01*
X165372166Y-141823088D01*
X165398728Y-141924688D01*
X165504670Y-142173990D01*
X165645779Y-142405205D01*
X165645786Y-142405215D01*
X165819053Y-142613419D01*
X165819059Y-142613424D01*
X166020798Y-142794182D01*
X166246710Y-142943644D01*
X166491976Y-143058620D01*
X166491983Y-143058622D01*
X166491985Y-143058623D01*
X166751357Y-143136657D01*
X166751364Y-143136658D01*
X166751369Y-143136660D01*
X167019361Y-143176100D01*
X167019366Y-143176100D01*
X167222436Y-143176100D01*
X167273933Y-143172330D01*
X167424956Y-143161277D01*
X167537558Y-143136193D01*
X167689346Y-143102382D01*
X167689348Y-143102381D01*
X167689353Y-143102380D01*
X167942358Y-143005614D01*
X168178577Y-142873041D01*
X168392977Y-142707488D01*
X168580986Y-142512481D01*
X168738599Y-142292179D01*
X168812587Y-142148269D01*
X168862449Y-142051290D01*
X168862451Y-142051284D01*
X168862456Y-142051275D01*
X168949918Y-141794905D01*
X168999119Y-141528533D01*
X169009012Y-141257835D01*
X168979386Y-140988582D01*
X168910872Y-140726512D01*
X168804930Y-140477210D01*
X168663818Y-140245990D01*
X168662645Y-140244581D01*
X168490546Y-140037780D01*
X168490540Y-140037775D01*
X168288802Y-139857018D01*
X168062892Y-139707557D01*
X167996763Y-139676557D01*
X167817624Y-139592580D01*
X167817619Y-139592578D01*
X167817614Y-139592576D01*
X167558242Y-139514542D01*
X167558228Y-139514539D01*
X167442591Y-139497521D01*
X167290239Y-139475100D01*
X167087169Y-139475100D01*
X167087164Y-139475100D01*
X166884644Y-139489923D01*
X166884631Y-139489925D01*
X166620253Y-139548817D01*
X166620246Y-139548820D01*
X166367239Y-139645587D01*
X166131026Y-139778157D01*
X165916622Y-139943712D01*
X165728622Y-140138709D01*
X165728616Y-140138716D01*
X165571002Y-140359019D01*
X165570999Y-140359024D01*
X165447150Y-140599909D01*
X165447143Y-140599927D01*
X165359684Y-140856285D01*
X165359681Y-140856299D01*
X165310481Y-141122668D01*
X165310480Y-141122675D01*
X165300587Y-141393363D01*
X139000346Y-141393363D01*
X139009012Y-141156235D01*
X138979386Y-140886982D01*
X138910872Y-140624912D01*
X138804930Y-140375610D01*
X138663818Y-140144390D01*
X138574547Y-140037119D01*
X138490546Y-139936180D01*
X138490540Y-139936175D01*
X138288802Y-139755418D01*
X138062892Y-139605957D01*
X138034348Y-139592576D01*
X137817624Y-139490980D01*
X137817619Y-139490978D01*
X137817614Y-139490976D01*
X137558242Y-139412942D01*
X137558228Y-139412939D01*
X137442591Y-139395921D01*
X137290239Y-139373500D01*
X137087169Y-139373500D01*
X137087164Y-139373500D01*
X136884644Y-139388323D01*
X136884631Y-139388325D01*
X136620253Y-139447217D01*
X136620246Y-139447220D01*
X136367239Y-139543987D01*
X136131026Y-139676557D01*
X135916622Y-139842112D01*
X135728622Y-140037109D01*
X135728616Y-140037116D01*
X135571002Y-140257419D01*
X135570999Y-140257424D01*
X135447150Y-140498309D01*
X135447143Y-140498327D01*
X135359684Y-140754685D01*
X135359681Y-140754699D01*
X135340916Y-140856295D01*
X135316481Y-140988586D01*
X135310481Y-141021068D01*
X135310480Y-141021075D01*
X135300587Y-141291763D01*
X129844500Y-141291763D01*
X129844500Y-128729791D01*
X132103458Y-128729791D01*
X132108064Y-128782420D01*
X132108300Y-128787827D01*
X132108300Y-128796178D01*
X132112147Y-128829096D01*
X132118912Y-128906427D01*
X132120372Y-128913494D01*
X132120326Y-128913503D01*
X132122009Y-128921094D01*
X132122054Y-128921084D01*
X132123719Y-128928110D01*
X132150273Y-129001065D01*
X132174686Y-129074737D01*
X132177740Y-129081286D01*
X132177696Y-129081306D01*
X132181084Y-129088304D01*
X132181127Y-129088283D01*
X132184363Y-129094728D01*
X132184365Y-129094732D01*
X132227033Y-129159605D01*
X132267770Y-129225651D01*
X132267772Y-129225653D01*
X132272251Y-129231318D01*
X132272213Y-129231347D01*
X132277120Y-129237372D01*
X132277157Y-129237342D01*
X132281802Y-129242878D01*
X132338282Y-129296163D01*
X133756538Y-130714419D01*
X133790023Y-130775742D01*
X133789431Y-130831046D01*
X133761728Y-130946441D01*
X133761727Y-130946450D01*
X133742481Y-131191000D01*
X133761727Y-131435554D01*
X133818993Y-131674087D01*
X133912872Y-131900730D01*
X134022619Y-132079824D01*
X134040863Y-132147270D01*
X134019746Y-132213872D01*
X133991202Y-132243879D01*
X133892541Y-132317737D01*
X133892540Y-132317738D01*
X133892539Y-132317739D01*
X133857331Y-132364770D01*
X133804911Y-132434795D01*
X133753811Y-132571795D01*
X133753811Y-132571797D01*
X133747300Y-132632345D01*
X133747300Y-134829654D01*
X133753811Y-134890202D01*
X133753811Y-134890204D01*
X133804911Y-135027204D01*
X133892539Y-135144261D01*
X134009596Y-135231889D01*
X134146599Y-135282989D01*
X134173850Y-135285918D01*
X134207145Y-135289499D01*
X134207162Y-135289500D01*
X136404438Y-135289500D01*
X136404454Y-135289499D01*
X136431492Y-135286591D01*
X136465001Y-135282989D01*
X136602004Y-135231889D01*
X136719061Y-135144261D01*
X136806689Y-135027204D01*
X136857789Y-134890201D01*
X136861391Y-134856692D01*
X136864299Y-134829654D01*
X136864300Y-134829637D01*
X136864300Y-133731002D01*
X143153701Y-133731002D01*
X143154831Y-133741038D01*
X143155401Y-133762113D01*
X143154628Y-133775402D01*
X143154628Y-133775405D01*
X143165581Y-133837523D01*
X143166133Y-133841347D01*
X143172839Y-133900855D01*
X143177393Y-133913870D01*
X143182468Y-133933292D01*
X143185416Y-133950015D01*
X143185419Y-133950023D01*
X143209048Y-134004803D01*
X143210640Y-134008883D01*
X143229289Y-134062180D01*
X143229291Y-134062183D01*
X143238593Y-134076987D01*
X143247452Y-134093831D01*
X143255648Y-134112832D01*
X143255650Y-134112836D01*
X143289242Y-134157958D01*
X143292001Y-134161986D01*
X143320229Y-134206909D01*
X143320230Y-134206910D01*
X143335193Y-134221873D01*
X143346969Y-134235498D01*
X143361531Y-134255058D01*
X143402018Y-134289031D01*
X143406007Y-134292687D01*
X143441092Y-134327772D01*
X143444686Y-134330030D01*
X143465737Y-134343257D01*
X143472606Y-134348261D01*
X143497360Y-134369032D01*
X143541532Y-134391215D01*
X143546685Y-134394120D01*
X143585817Y-134418709D01*
X143616544Y-134429461D01*
X143623874Y-134432569D01*
X143655812Y-134448609D01*
X143700571Y-134459216D01*
X143706752Y-134461025D01*
X143747150Y-134475162D01*
X143782891Y-134479188D01*
X143790236Y-134480468D01*
X143828344Y-134489500D01*
X143870925Y-134489500D01*
X143877863Y-134489889D01*
X143905137Y-134492962D01*
X143916998Y-134494299D01*
X143917000Y-134494299D01*
X143917002Y-134494299D01*
X143928862Y-134492962D01*
X143956136Y-134489889D01*
X143963075Y-134489500D01*
X148253312Y-134489500D01*
X148271282Y-134490809D01*
X148273780Y-134491174D01*
X148295395Y-134494341D01*
X148348032Y-134489735D01*
X148353434Y-134489500D01*
X148361781Y-134489500D01*
X148361786Y-134489500D01*
X148385441Y-134486734D01*
X148394702Y-134485652D01*
X148472025Y-134478888D01*
X148472028Y-134478887D01*
X148472032Y-134478887D01*
X148472035Y-134478885D01*
X148479099Y-134477427D01*
X148479108Y-134477474D01*
X148486703Y-134475790D01*
X148486693Y-134475744D01*
X148493713Y-134474079D01*
X148493719Y-134474079D01*
X148566671Y-134447526D01*
X148640344Y-134423114D01*
X148640352Y-134423108D01*
X148646890Y-134420061D01*
X148646911Y-134420106D01*
X148653908Y-134416719D01*
X148653886Y-134416675D01*
X148660335Y-134413436D01*
X148660334Y-134413436D01*
X148660338Y-134413435D01*
X148725211Y-134370766D01*
X148791257Y-134330030D01*
X148791261Y-134330025D01*
X148796925Y-134325548D01*
X148796956Y-134325587D01*
X148802980Y-134320680D01*
X148802948Y-134320642D01*
X148808470Y-134316007D01*
X148808480Y-134316001D01*
X148832289Y-134290765D01*
X148861769Y-134259518D01*
X149522897Y-133598389D01*
X149746314Y-133374971D01*
X149807635Y-133341488D01*
X149877326Y-133346472D01*
X149933260Y-133388343D01*
X149957521Y-133451846D01*
X149963456Y-133519688D01*
X149963457Y-133519695D01*
X150022714Y-133740844D01*
X150022718Y-133740855D01*
X150103396Y-133913870D01*
X150119477Y-133948355D01*
X150250802Y-134135906D01*
X150412700Y-134297804D01*
X150600251Y-134429129D01*
X150708502Y-134479607D01*
X150807750Y-134525887D01*
X150807752Y-134525887D01*
X150807757Y-134525890D01*
X151028913Y-134585149D01*
X151191832Y-134599402D01*
X151256998Y-134605104D01*
X151257000Y-134605104D01*
X151257002Y-134605104D01*
X151314021Y-134600115D01*
X151485087Y-134585149D01*
X151706243Y-134525890D01*
X151913749Y-134429129D01*
X152101300Y-134297804D01*
X152263198Y-134135906D01*
X152394523Y-133948355D01*
X152491284Y-133740849D01*
X152493922Y-133731004D01*
X162400793Y-133731004D01*
X162419592Y-133981866D01*
X162470957Y-134206909D01*
X162475573Y-134227134D01*
X162567483Y-134461316D01*
X162693269Y-134679184D01*
X162850122Y-134875872D01*
X163034538Y-135046984D01*
X163242397Y-135188700D01*
X163469055Y-135297853D01*
X163709451Y-135372005D01*
X163709452Y-135372005D01*
X163709455Y-135372006D01*
X163958206Y-135409499D01*
X163958211Y-135409499D01*
X163958214Y-135409500D01*
X163958215Y-135409500D01*
X164209785Y-135409500D01*
X164209786Y-135409500D01*
X164209793Y-135409499D01*
X164458544Y-135372006D01*
X164458545Y-135372005D01*
X164458549Y-135372005D01*
X164698945Y-135297853D01*
X164925604Y-135188700D01*
X165133462Y-135046984D01*
X165317878Y-134875872D01*
X165474731Y-134679184D01*
X165600517Y-134461316D01*
X165692427Y-134227134D01*
X165748407Y-133981869D01*
X165759224Y-133837523D01*
X165767207Y-133731004D01*
X165767207Y-133730995D01*
X165748407Y-133480133D01*
X165741951Y-133451846D01*
X165692427Y-133234866D01*
X165600517Y-133000684D01*
X165474731Y-132782816D01*
X165317878Y-132586128D01*
X165133462Y-132415016D01*
X164925604Y-132273300D01*
X164925603Y-132273299D01*
X164925596Y-132273295D01*
X164698947Y-132164148D01*
X164698949Y-132164148D01*
X164458550Y-132089995D01*
X164458544Y-132089993D01*
X164209793Y-132052500D01*
X164209786Y-132052500D01*
X163958214Y-132052500D01*
X163958206Y-132052500D01*
X163709455Y-132089993D01*
X163709449Y-132089995D01*
X163469054Y-132164147D01*
X163242401Y-132273297D01*
X163034537Y-132415016D01*
X162850123Y-132586126D01*
X162850122Y-132586128D01*
X162693269Y-132782816D01*
X162567483Y-133000683D01*
X162475575Y-133234860D01*
X162475570Y-133234877D01*
X162419592Y-133480133D01*
X162400793Y-133730995D01*
X162400793Y-133731004D01*
X152493922Y-133731004D01*
X152550543Y-133519693D01*
X152570498Y-133291606D01*
X152550543Y-133063519D01*
X152491284Y-132842363D01*
X152394523Y-132634857D01*
X152263198Y-132447306D01*
X152115660Y-132299768D01*
X152082175Y-132238445D01*
X152087159Y-132168753D01*
X152129031Y-132112820D01*
X152160007Y-132095906D01*
X152254946Y-132060494D01*
X152303204Y-132042495D01*
X152420261Y-131954867D01*
X152507889Y-131837810D01*
X152558989Y-131700807D01*
X152562591Y-131667298D01*
X152565499Y-131640260D01*
X152565500Y-131640243D01*
X152565500Y-131231004D01*
X157400793Y-131231004D01*
X157419592Y-131481866D01*
X157475570Y-131727122D01*
X157475573Y-131727134D01*
X157567483Y-131961316D01*
X157693269Y-132179184D01*
X157850122Y-132375872D01*
X158034538Y-132546984D01*
X158242397Y-132688700D01*
X158469055Y-132797853D01*
X158709451Y-132872005D01*
X158709452Y-132872005D01*
X158709455Y-132872006D01*
X158958206Y-132909499D01*
X158958211Y-132909499D01*
X158958214Y-132909500D01*
X158958215Y-132909500D01*
X159209785Y-132909500D01*
X159209786Y-132909500D01*
X159209793Y-132909499D01*
X159458544Y-132872006D01*
X159458545Y-132872005D01*
X159458549Y-132872005D01*
X159698945Y-132797853D01*
X159925604Y-132688700D01*
X160133462Y-132546984D01*
X160317878Y-132375872D01*
X160474731Y-132179184D01*
X160600517Y-131961316D01*
X160692427Y-131727134D01*
X160748407Y-131481869D01*
X160767207Y-131231004D01*
X167400793Y-131231004D01*
X167419592Y-131481866D01*
X167475570Y-131727122D01*
X167475573Y-131727134D01*
X167567483Y-131961316D01*
X167693269Y-132179184D01*
X167850122Y-132375872D01*
X168034538Y-132546984D01*
X168242397Y-132688700D01*
X168469055Y-132797853D01*
X168709451Y-132872005D01*
X168709452Y-132872005D01*
X168709455Y-132872006D01*
X168958206Y-132909499D01*
X168958211Y-132909499D01*
X168958214Y-132909500D01*
X168958215Y-132909500D01*
X169209785Y-132909500D01*
X169209786Y-132909500D01*
X169209793Y-132909499D01*
X169458544Y-132872006D01*
X169458545Y-132872005D01*
X169458549Y-132872005D01*
X169698945Y-132797853D01*
X169925604Y-132688700D01*
X170133462Y-132546984D01*
X170317878Y-132375872D01*
X170474731Y-132179184D01*
X170600517Y-131961316D01*
X170692427Y-131727134D01*
X170748407Y-131481869D01*
X170767207Y-131231000D01*
X170764209Y-131191000D01*
X170748407Y-130980133D01*
X170748407Y-130980131D01*
X170692427Y-130734866D01*
X170600517Y-130500684D01*
X170474731Y-130282816D01*
X170317878Y-130086128D01*
X170317273Y-130085567D01*
X170163587Y-129942968D01*
X170133462Y-129915016D01*
X169925604Y-129773300D01*
X169925603Y-129773299D01*
X169925596Y-129773295D01*
X169698947Y-129664148D01*
X169698949Y-129664148D01*
X169458550Y-129589995D01*
X169458544Y-129589993D01*
X169209793Y-129552500D01*
X169209786Y-129552500D01*
X168958214Y-129552500D01*
X168958206Y-129552500D01*
X168709455Y-129589993D01*
X168709449Y-129589995D01*
X168469054Y-129664147D01*
X168242401Y-129773297D01*
X168034537Y-129915016D01*
X167850123Y-130086126D01*
X167850122Y-130086128D01*
X167693269Y-130282816D01*
X167567483Y-130500683D01*
X167475575Y-130734860D01*
X167475570Y-130734877D01*
X167419592Y-130980133D01*
X167400793Y-131230995D01*
X167400793Y-131231004D01*
X160767207Y-131231004D01*
X160767207Y-131231000D01*
X160764209Y-131191000D01*
X160748407Y-130980133D01*
X160748407Y-130980131D01*
X160692427Y-130734866D01*
X160600517Y-130500684D01*
X160474731Y-130282816D01*
X160317878Y-130086128D01*
X160317273Y-130085567D01*
X160163587Y-129942968D01*
X160133462Y-129915016D01*
X159925604Y-129773300D01*
X159925603Y-129773299D01*
X159925596Y-129773295D01*
X159698947Y-129664148D01*
X159698949Y-129664148D01*
X159458550Y-129589995D01*
X159458544Y-129589993D01*
X159209793Y-129552500D01*
X159209786Y-129552500D01*
X158958214Y-129552500D01*
X158958206Y-129552500D01*
X158709455Y-129589993D01*
X158709449Y-129589995D01*
X158469054Y-129664147D01*
X158242401Y-129773297D01*
X158034537Y-129915016D01*
X157850123Y-130086126D01*
X157850122Y-130086128D01*
X157693269Y-130282816D01*
X157567483Y-130500683D01*
X157475575Y-130734860D01*
X157475570Y-130734877D01*
X157419592Y-130980133D01*
X157400793Y-131230995D01*
X157400793Y-131231004D01*
X152565500Y-131231004D01*
X152565500Y-129942968D01*
X152565499Y-129942951D01*
X152562157Y-129911876D01*
X152558989Y-129882405D01*
X152507889Y-129745402D01*
X152420261Y-129628345D01*
X152303204Y-129540717D01*
X152166203Y-129489617D01*
X152105654Y-129483106D01*
X152105638Y-129483106D01*
X150408362Y-129483106D01*
X150408345Y-129483106D01*
X150347797Y-129489617D01*
X150347795Y-129489617D01*
X150210795Y-129540717D01*
X150093739Y-129628345D01*
X150006111Y-129745401D01*
X149955011Y-129882401D01*
X149955011Y-129882403D01*
X149948500Y-129942951D01*
X149948500Y-130976063D01*
X149928815Y-131043102D01*
X149912181Y-131063744D01*
X148039744Y-132936181D01*
X147978421Y-132969666D01*
X147952063Y-132972500D01*
X143963075Y-132972500D01*
X143956136Y-132972110D01*
X143928862Y-132969037D01*
X143917002Y-132967701D01*
X143916997Y-132967701D01*
X143877777Y-132972120D01*
X143874449Y-132972405D01*
X143872834Y-132972499D01*
X143872825Y-132972500D01*
X143872820Y-132972500D01*
X143830410Y-132977457D01*
X143810189Y-132979735D01*
X143747067Y-132986847D01*
X143741057Y-132987880D01*
X143740887Y-132987921D01*
X143662000Y-133016633D01*
X143585813Y-133043292D01*
X143579495Y-133046334D01*
X143574602Y-133048396D01*
X143574264Y-133048566D01*
X143506736Y-133092980D01*
X143441093Y-133134227D01*
X143435649Y-133138569D01*
X143435399Y-133138255D01*
X143431630Y-133141324D01*
X143431657Y-133141357D01*
X143426127Y-133145997D01*
X143372818Y-133202500D01*
X143320232Y-133255086D01*
X143316119Y-133260243D01*
X143305975Y-133273350D01*
X143304449Y-133274967D01*
X143267194Y-133339494D01*
X143229292Y-133399813D01*
X143229290Y-133399819D01*
X143228399Y-133402366D01*
X143218744Y-133423413D01*
X143215792Y-133428525D01*
X143215789Y-133428532D01*
X143195742Y-133495494D01*
X143194868Y-133498188D01*
X143172837Y-133561149D01*
X143172119Y-133567524D01*
X143167693Y-133589187D01*
X143164938Y-133598389D01*
X143164937Y-133598392D01*
X143161071Y-133664779D01*
X143160786Y-133668115D01*
X143153701Y-133730995D01*
X143153701Y-133731002D01*
X136864300Y-133731002D01*
X136864300Y-132632362D01*
X136864299Y-132632345D01*
X136859329Y-132586126D01*
X136857789Y-132571799D01*
X136848533Y-132546984D01*
X136811353Y-132447301D01*
X136806689Y-132434796D01*
X136719061Y-132317739D01*
X136620396Y-132243879D01*
X136578526Y-132187946D01*
X136573542Y-132118254D01*
X136588980Y-132079824D01*
X136698727Y-131900732D01*
X136792605Y-131674092D01*
X136849872Y-131435557D01*
X136869119Y-131191000D01*
X136849872Y-130946443D01*
X136792605Y-130707908D01*
X136742982Y-130588108D01*
X136698728Y-130481269D01*
X136570553Y-130272106D01*
X136570552Y-130272104D01*
X136411233Y-130085567D01*
X136224696Y-129926248D01*
X136206362Y-129915013D01*
X136015530Y-129798071D01*
X135788887Y-129704193D01*
X135550353Y-129646927D01*
X135550354Y-129646927D01*
X135305800Y-129627681D01*
X135061250Y-129646927D01*
X135061241Y-129646928D01*
X134945846Y-129674631D01*
X134876063Y-129671140D01*
X134829219Y-129641738D01*
X133661619Y-128474138D01*
X133628134Y-128412815D01*
X133625300Y-128386457D01*
X133625300Y-122499474D01*
X133625689Y-122492537D01*
X133630099Y-122453400D01*
X133625689Y-122414263D01*
X133625300Y-122407324D01*
X133625300Y-121418142D01*
X133644985Y-121351103D01*
X133661614Y-121330466D01*
X135140424Y-119851655D01*
X135201745Y-119818172D01*
X135238907Y-119815810D01*
X135339927Y-119824648D01*
X135356599Y-119826107D01*
X135356600Y-119826107D01*
X135356602Y-119826107D01*
X135411442Y-119821309D01*
X135575971Y-119806915D01*
X135788676Y-119749920D01*
X135988254Y-119656856D01*
X136039868Y-119620714D01*
X136106070Y-119598388D01*
X136173838Y-119615397D01*
X136198671Y-119634609D01*
X136814549Y-120250487D01*
X136848034Y-120311810D01*
X136843050Y-120381502D01*
X136801178Y-120437435D01*
X136765877Y-120455872D01*
X136735663Y-120465885D01*
X136735438Y-120465990D01*
X136730274Y-120468817D01*
X136727221Y-120470287D01*
X136657554Y-120514063D01*
X136584749Y-120558970D01*
X136584747Y-120558970D01*
X136513532Y-120630185D01*
X136510909Y-120632659D01*
X136462522Y-120675720D01*
X136425359Y-120728793D01*
X136423206Y-120731685D01*
X136383034Y-120782490D01*
X136383033Y-120782492D01*
X136378190Y-120792878D01*
X136367391Y-120811581D01*
X136360825Y-120820959D01*
X136360819Y-120820970D01*
X136336905Y-120881164D01*
X136335477Y-120884475D01*
X136308096Y-120943194D01*
X136308096Y-120943195D01*
X136305779Y-120954416D01*
X136299583Y-120975112D01*
X136295358Y-120985746D01*
X136295357Y-120985751D01*
X136285971Y-121049825D01*
X136285345Y-121053376D01*
X136272242Y-121116832D01*
X136272241Y-121116841D01*
X136272574Y-121128298D01*
X136271317Y-121149866D01*
X136269659Y-121161185D01*
X136269658Y-121161193D01*
X136275303Y-121225709D01*
X136275513Y-121229310D01*
X136277398Y-121294083D01*
X136280363Y-121305147D01*
X136284114Y-121326420D01*
X136285112Y-121337826D01*
X136285112Y-121337827D01*
X136305480Y-121399293D01*
X136306514Y-121402747D01*
X136323290Y-121465352D01*
X136328727Y-121475435D01*
X136337285Y-121495273D01*
X136340885Y-121506135D01*
X136340888Y-121506143D01*
X136374881Y-121561252D01*
X136376684Y-121564375D01*
X136407444Y-121621421D01*
X136415058Y-121629977D01*
X136427958Y-121647305D01*
X136433970Y-121657051D01*
X136433972Y-121657054D01*
X136479775Y-121702856D01*
X136482239Y-121705467D01*
X136525319Y-121753876D01*
X136534698Y-121760443D01*
X136551257Y-121774338D01*
X137127181Y-122350262D01*
X137160666Y-122411585D01*
X137163500Y-122437943D01*
X137163500Y-124210724D01*
X137163110Y-124217671D01*
X137158701Y-124256798D01*
X137158701Y-124256802D01*
X137163120Y-124296022D01*
X137163405Y-124299352D01*
X137163498Y-124300963D01*
X137163500Y-124300980D01*
X137168457Y-124343389D01*
X137172539Y-124379619D01*
X137177848Y-124426749D01*
X137178875Y-124432721D01*
X137178921Y-124432914D01*
X137207633Y-124511799D01*
X137234290Y-124587982D01*
X137237330Y-124594293D01*
X137239399Y-124599201D01*
X137239565Y-124599532D01*
X137283980Y-124667063D01*
X137325229Y-124732709D01*
X137325231Y-124732711D01*
X137329571Y-124738153D01*
X137329253Y-124738406D01*
X137332321Y-124742172D01*
X137332357Y-124742142D01*
X137337002Y-124747678D01*
X137393500Y-124800980D01*
X137446085Y-124853566D01*
X137451321Y-124857741D01*
X137464358Y-124867831D01*
X137465971Y-124869353D01*
X137465973Y-124869354D01*
X137465974Y-124869355D01*
X137500437Y-124889252D01*
X137530494Y-124906605D01*
X137590817Y-124944509D01*
X137593358Y-124945398D01*
X137614415Y-124955057D01*
X137619528Y-124958009D01*
X137686512Y-124978062D01*
X137689181Y-124978928D01*
X137752150Y-125000962D01*
X137758506Y-125001677D01*
X137780198Y-125006109D01*
X137789391Y-125008862D01*
X137855817Y-125012730D01*
X137859060Y-125013006D01*
X137922000Y-125020099D01*
X137932041Y-125018967D01*
X137953119Y-125018398D01*
X137966403Y-125019172D01*
X138028562Y-125008211D01*
X138032329Y-125007668D01*
X138091850Y-125000962D01*
X138098447Y-124998653D01*
X138104861Y-124996409D01*
X138124295Y-124991331D01*
X138132631Y-124989861D01*
X138141021Y-124988382D01*
X138195839Y-124964735D01*
X138199866Y-124963164D01*
X138253183Y-124944509D01*
X138267991Y-124935203D01*
X138284847Y-124926340D01*
X138303832Y-124918152D01*
X138348982Y-124884538D01*
X138352984Y-124881798D01*
X138375206Y-124867836D01*
X138397902Y-124853576D01*
X138397903Y-124853574D01*
X138397909Y-124853571D01*
X138412880Y-124838598D01*
X138426499Y-124826829D01*
X138446058Y-124812269D01*
X138480042Y-124771766D01*
X138483660Y-124767818D01*
X138518771Y-124732709D01*
X138534258Y-124708061D01*
X138539263Y-124701189D01*
X138560032Y-124676440D01*
X138582215Y-124632267D01*
X138585117Y-124627120D01*
X138594061Y-124612885D01*
X138609709Y-124587983D01*
X138609710Y-124587978D01*
X138609712Y-124587976D01*
X138619110Y-124561115D01*
X138620457Y-124557263D01*
X138623569Y-124549924D01*
X138639609Y-124517988D01*
X138650217Y-124473222D01*
X138652018Y-124467066D01*
X138666162Y-124426650D01*
X138670188Y-124390912D01*
X138671470Y-124383554D01*
X138680499Y-124345459D01*
X138680500Y-124345456D01*
X138680500Y-124302874D01*
X138680889Y-124295937D01*
X138685299Y-124256800D01*
X138680889Y-124217663D01*
X138680500Y-124210724D01*
X138680500Y-122415800D01*
X138700185Y-122348761D01*
X138752989Y-122303006D01*
X138822147Y-122293062D01*
X138885703Y-122322087D01*
X138892181Y-122328119D01*
X140371939Y-123807877D01*
X140383720Y-123821509D01*
X140398274Y-123841058D01*
X140428550Y-123866463D01*
X140438748Y-123875020D01*
X140442738Y-123878676D01*
X140448642Y-123884580D01*
X140474639Y-123905136D01*
X140534103Y-123955032D01*
X140534105Y-123955033D01*
X140540139Y-123959002D01*
X140540112Y-123959042D01*
X140546664Y-123963216D01*
X140546690Y-123963175D01*
X140552842Y-123966970D01*
X140623190Y-123999773D01*
X140692555Y-124034609D01*
X140692556Y-124034609D01*
X140692558Y-124034610D01*
X140699337Y-124037077D01*
X140699320Y-124037122D01*
X140706668Y-124039676D01*
X140706684Y-124039631D01*
X140713533Y-124041901D01*
X140713536Y-124041901D01*
X140713537Y-124041902D01*
X140789561Y-124057599D01*
X140865087Y-124075500D01*
X140865088Y-124075500D01*
X140865092Y-124075501D01*
X140872260Y-124076339D01*
X140872254Y-124076386D01*
X140879985Y-124077176D01*
X140879990Y-124077129D01*
X140887180Y-124077758D01*
X140887184Y-124077757D01*
X140887185Y-124077758D01*
X140964788Y-124075500D01*
X143075213Y-124075500D01*
X143142252Y-124095185D01*
X143173442Y-124125161D01*
X143173769Y-124124888D01*
X143176316Y-124127923D01*
X143176787Y-124128376D01*
X143177251Y-124129038D01*
X143332962Y-124284749D01*
X143513346Y-124411056D01*
X143633431Y-124467052D01*
X143649656Y-124474618D01*
X143702095Y-124520790D01*
X143721247Y-124587984D01*
X143701031Y-124654865D01*
X143649656Y-124699382D01*
X143513346Y-124762944D01*
X143513342Y-124762946D01*
X143332967Y-124889247D01*
X143332960Y-124889252D01*
X143177252Y-125044960D01*
X143177247Y-125044967D01*
X143050946Y-125225342D01*
X143050944Y-125225346D01*
X142957881Y-125424920D01*
X142900885Y-125637627D01*
X142900884Y-125637634D01*
X142881693Y-125856997D01*
X142881693Y-125857000D01*
X142900885Y-126076371D01*
X142957880Y-126289076D01*
X142957881Y-126289079D01*
X142957882Y-126289081D01*
X143050942Y-126488650D01*
X143050943Y-126488652D01*
X143177251Y-126669038D01*
X143332961Y-126824748D01*
X143458890Y-126912925D01*
X143502515Y-126967503D01*
X143509707Y-127037001D01*
X143478185Y-127099356D01*
X143417955Y-127134769D01*
X143387766Y-127138500D01*
X143346345Y-127138500D01*
X143285797Y-127145011D01*
X143285795Y-127145011D01*
X143148795Y-127196111D01*
X143031739Y-127283739D01*
X142944111Y-127400795D01*
X142893011Y-127537795D01*
X142893011Y-127537797D01*
X142886500Y-127598345D01*
X142886500Y-129195654D01*
X142893011Y-129256202D01*
X142893011Y-129256204D01*
X142944111Y-129393204D01*
X143031739Y-129510261D01*
X143148796Y-129597889D01*
X143228671Y-129627681D01*
X143280270Y-129646927D01*
X143285799Y-129648989D01*
X143313050Y-129651918D01*
X143346345Y-129655499D01*
X143346362Y-129655500D01*
X144943638Y-129655500D01*
X144943654Y-129655499D01*
X144970692Y-129652591D01*
X145004201Y-129648989D01*
X145009730Y-129646927D01*
X145023641Y-129641738D01*
X145141204Y-129597889D01*
X145258261Y-129510261D01*
X145345889Y-129393204D01*
X145396989Y-129256201D01*
X145400591Y-129222692D01*
X145403499Y-129195654D01*
X145403500Y-129195637D01*
X145403500Y-127598362D01*
X145403499Y-127598345D01*
X145400157Y-127567270D01*
X145396989Y-127537799D01*
X145345889Y-127400796D01*
X145258261Y-127283739D01*
X145141204Y-127196111D01*
X145004203Y-127145011D01*
X144943654Y-127138500D01*
X144943638Y-127138500D01*
X144902234Y-127138500D01*
X144835195Y-127118815D01*
X144789440Y-127066011D01*
X144779496Y-126996853D01*
X144808521Y-126933297D01*
X144831110Y-126912925D01*
X144957038Y-126824749D01*
X145112749Y-126669038D01*
X145239056Y-126488654D01*
X145332120Y-126289076D01*
X145389115Y-126076371D01*
X145408307Y-125857000D01*
X145389115Y-125637629D01*
X145332120Y-125424924D01*
X145239056Y-125225347D01*
X145239054Y-125225344D01*
X145239053Y-125225342D01*
X145175902Y-125135154D01*
X145112749Y-125044962D01*
X144957038Y-124889251D01*
X144776654Y-124762944D01*
X144711814Y-124732709D01*
X144640344Y-124699382D01*
X144587904Y-124653210D01*
X144568752Y-124586017D01*
X144588967Y-124519135D01*
X144640344Y-124474618D01*
X144656569Y-124467052D01*
X144776654Y-124411056D01*
X144957038Y-124284749D01*
X145112749Y-124129038D01*
X145239056Y-123948654D01*
X145332120Y-123749076D01*
X145389115Y-123536371D01*
X145408307Y-123317000D01*
X145389115Y-123097629D01*
X145332120Y-122884924D01*
X145239056Y-122685347D01*
X145239054Y-122685344D01*
X145239053Y-122685342D01*
X145136453Y-122538815D01*
X145112749Y-122504962D01*
X144957038Y-122349251D01*
X144776654Y-122222944D01*
X144776650Y-122222942D01*
X144577081Y-122129882D01*
X144577079Y-122129881D01*
X144577076Y-122129880D01*
X144425777Y-122089339D01*
X144364372Y-122072885D01*
X144364365Y-122072884D01*
X144145002Y-122053693D01*
X144144998Y-122053693D01*
X143925634Y-122072884D01*
X143925627Y-122072885D01*
X143712920Y-122129881D01*
X143513346Y-122222944D01*
X143513342Y-122222946D01*
X143332967Y-122349247D01*
X143332960Y-122349252D01*
X143177254Y-122504958D01*
X143177245Y-122504969D01*
X143176787Y-122505624D01*
X143176510Y-122505844D01*
X143173769Y-122509112D01*
X143173112Y-122508561D01*
X143122210Y-122549249D01*
X143075213Y-122558500D01*
X141319286Y-122558500D01*
X141252247Y-122538815D01*
X141231605Y-122522181D01*
X138833619Y-120124195D01*
X166123302Y-120124195D01*
X166143256Y-120352275D01*
X166143257Y-120352283D01*
X166202514Y-120573432D01*
X166202518Y-120573443D01*
X166299275Y-120780939D01*
X166299277Y-120780943D01*
X166430602Y-120968494D01*
X166430606Y-120968498D01*
X166578139Y-121116031D01*
X166611624Y-121177354D01*
X166606640Y-121247046D01*
X166564768Y-121302979D01*
X166533793Y-121319893D01*
X166390595Y-121373305D01*
X166273539Y-121460933D01*
X166185911Y-121577989D01*
X166134811Y-121714989D01*
X166134811Y-121714991D01*
X166128300Y-121775539D01*
X166128300Y-123472848D01*
X166134811Y-123533396D01*
X166134811Y-123533398D01*
X166185911Y-123670398D01*
X166273539Y-123787455D01*
X166390596Y-123875083D01*
X166527599Y-123926183D01*
X166554850Y-123929112D01*
X166588145Y-123932693D01*
X166588162Y-123932694D01*
X168285438Y-123932694D01*
X168285454Y-123932693D01*
X168312492Y-123929785D01*
X168346001Y-123926183D01*
X168483004Y-123875083D01*
X168600061Y-123787455D01*
X168687689Y-123670398D01*
X168738789Y-123533395D01*
X168742391Y-123499886D01*
X168745299Y-123472848D01*
X168745300Y-123472831D01*
X168745300Y-121775556D01*
X168745299Y-121775539D01*
X168741957Y-121744464D01*
X168738789Y-121714993D01*
X168735241Y-121705481D01*
X168703887Y-121621419D01*
X168687689Y-121577990D01*
X168600061Y-121460933D01*
X168483004Y-121373305D01*
X168465513Y-121366781D01*
X168339806Y-121319893D01*
X168283873Y-121278021D01*
X168259457Y-121212556D01*
X168274310Y-121144284D01*
X168295454Y-121116037D01*
X168442998Y-120968494D01*
X168574323Y-120780943D01*
X168671084Y-120573437D01*
X168730343Y-120352281D01*
X168750298Y-120124194D01*
X168730343Y-119896107D01*
X168671084Y-119674951D01*
X168668769Y-119669987D01*
X168615097Y-119554886D01*
X168574323Y-119467445D01*
X168442998Y-119279894D01*
X168281100Y-119117996D01*
X168093549Y-118986671D01*
X168093545Y-118986669D01*
X167886049Y-118889912D01*
X167886038Y-118889908D01*
X167664889Y-118830651D01*
X167664881Y-118830650D01*
X167436802Y-118810696D01*
X167436798Y-118810696D01*
X167208718Y-118830650D01*
X167208710Y-118830651D01*
X166987561Y-118889908D01*
X166987550Y-118889912D01*
X166780054Y-118986669D01*
X166780052Y-118986670D01*
X166780051Y-118986671D01*
X166592500Y-119117996D01*
X166592498Y-119117997D01*
X166592495Y-119118000D01*
X166430606Y-119279889D01*
X166430603Y-119279892D01*
X166430602Y-119279894D01*
X166374072Y-119360627D01*
X166299276Y-119467446D01*
X166299275Y-119467448D01*
X166202518Y-119674944D01*
X166202514Y-119674955D01*
X166143257Y-119896104D01*
X166143256Y-119896112D01*
X166123302Y-120124192D01*
X166123302Y-120124195D01*
X138833619Y-120124195D01*
X138537481Y-119828057D01*
X138503996Y-119766734D01*
X138508980Y-119697042D01*
X138550852Y-119641109D01*
X138554007Y-119638823D01*
X138708638Y-119530549D01*
X138864349Y-119374838D01*
X138961026Y-119236768D01*
X139015602Y-119193146D01*
X139085101Y-119185953D01*
X139147455Y-119217475D01*
X139182869Y-119277705D01*
X139186600Y-119307894D01*
X139186600Y-119360644D01*
X139193001Y-119420172D01*
X139193003Y-119420179D01*
X139243245Y-119554886D01*
X139243249Y-119554893D01*
X139329409Y-119669987D01*
X139329412Y-119669990D01*
X139444506Y-119756150D01*
X139444513Y-119756154D01*
X139579220Y-119806396D01*
X139579227Y-119806398D01*
X139638755Y-119812799D01*
X139638772Y-119812800D01*
X140186600Y-119812800D01*
X140186600Y-118878486D01*
X140198555Y-118890441D01*
X140311452Y-118947965D01*
X140405119Y-118962800D01*
X140468081Y-118962800D01*
X140561748Y-118947965D01*
X140674645Y-118890441D01*
X140686600Y-118878486D01*
X140686600Y-119812800D01*
X141234428Y-119812800D01*
X141234444Y-119812799D01*
X141293972Y-119806398D01*
X141293979Y-119806396D01*
X141428686Y-119756154D01*
X141428693Y-119756150D01*
X141543787Y-119669990D01*
X141543790Y-119669987D01*
X141629950Y-119554893D01*
X141629954Y-119554886D01*
X141680196Y-119420179D01*
X141680198Y-119420172D01*
X141686599Y-119360644D01*
X141686600Y-119360627D01*
X141686600Y-118812800D01*
X140752286Y-118812800D01*
X140764241Y-118800845D01*
X140821765Y-118687948D01*
X140841586Y-118562800D01*
X140821765Y-118437652D01*
X140764241Y-118324755D01*
X140752286Y-118312800D01*
X141686600Y-118312800D01*
X141686600Y-117764972D01*
X141686599Y-117764955D01*
X141680198Y-117705427D01*
X141680196Y-117705420D01*
X141629954Y-117570713D01*
X141629950Y-117570706D01*
X141543790Y-117455612D01*
X141543787Y-117455609D01*
X141428693Y-117369449D01*
X141428686Y-117369445D01*
X141293979Y-117319203D01*
X141293972Y-117319201D01*
X141234444Y-117312800D01*
X140686600Y-117312800D01*
X140686600Y-118247114D01*
X140674645Y-118235159D01*
X140561748Y-118177635D01*
X140468081Y-118162800D01*
X140405119Y-118162800D01*
X140311452Y-118177635D01*
X140198555Y-118235159D01*
X140186600Y-118247114D01*
X140186600Y-117312800D01*
X139638755Y-117312800D01*
X139579227Y-117319201D01*
X139579220Y-117319203D01*
X139444513Y-117369445D01*
X139444506Y-117369449D01*
X139329412Y-117455609D01*
X139329409Y-117455612D01*
X139243249Y-117570706D01*
X139243245Y-117570713D01*
X139193003Y-117705420D01*
X139193001Y-117705427D01*
X139186600Y-117764955D01*
X139186600Y-117817706D01*
X139166915Y-117884745D01*
X139114111Y-117930500D01*
X139044953Y-117940444D01*
X138981397Y-117911419D01*
X138961025Y-117888829D01*
X138900151Y-117801893D01*
X138864349Y-117750762D01*
X138708638Y-117595051D01*
X138528254Y-117468744D01*
X138500086Y-117455609D01*
X138328681Y-117375682D01*
X138328679Y-117375681D01*
X138328676Y-117375680D01*
X138177377Y-117335139D01*
X138115972Y-117318685D01*
X138115965Y-117318684D01*
X137896602Y-117299493D01*
X137896598Y-117299493D01*
X137677234Y-117318684D01*
X137677227Y-117318685D01*
X137464520Y-117375681D01*
X137264946Y-117468744D01*
X137264942Y-117468746D01*
X137084567Y-117595047D01*
X137084560Y-117595052D01*
X136928852Y-117750760D01*
X136928851Y-117750762D01*
X136815114Y-117913195D01*
X136760537Y-117956819D01*
X136691038Y-117964012D01*
X136633835Y-117937062D01*
X136619185Y-117924770D01*
X136619183Y-117924768D01*
X136619178Y-117924765D01*
X136613148Y-117920799D01*
X136613173Y-117920759D01*
X136606612Y-117916579D01*
X136606588Y-117916620D01*
X136600447Y-117912831D01*
X136530083Y-117880020D01*
X136460728Y-117845189D01*
X136453944Y-117842720D01*
X136453959Y-117842676D01*
X136446614Y-117840122D01*
X136446600Y-117840167D01*
X136439751Y-117837897D01*
X136424409Y-117834729D01*
X136362736Y-117801893D01*
X136347911Y-117784413D01*
X136324349Y-117750762D01*
X136279007Y-117705420D01*
X136168638Y-117595051D01*
X135988254Y-117468744D01*
X135960086Y-117455609D01*
X135788681Y-117375682D01*
X135788679Y-117375681D01*
X135788676Y-117375680D01*
X135637377Y-117335139D01*
X135575972Y-117318685D01*
X135575965Y-117318684D01*
X135356602Y-117299493D01*
X135356598Y-117299493D01*
X135137234Y-117318684D01*
X135137227Y-117318685D01*
X134924520Y-117375681D01*
X134724946Y-117468744D01*
X134724942Y-117468746D01*
X134544567Y-117595047D01*
X134544560Y-117595052D01*
X134388852Y-117750760D01*
X134388847Y-117750767D01*
X134262546Y-117931142D01*
X134262544Y-117931146D01*
X134169481Y-118130720D01*
X134112485Y-118343427D01*
X134112484Y-118343434D01*
X134093293Y-118562797D01*
X134093293Y-118562803D01*
X134103588Y-118680489D01*
X134089821Y-118748989D01*
X134067741Y-118778976D01*
X132375922Y-120470795D01*
X132362295Y-120482573D01*
X132342741Y-120497131D01*
X132308777Y-120537606D01*
X132305130Y-120541587D01*
X132299218Y-120547500D01*
X132278663Y-120573496D01*
X132228767Y-120632960D01*
X132224801Y-120638991D01*
X132224763Y-120638966D01*
X132220582Y-120645528D01*
X132220621Y-120645552D01*
X132216832Y-120651694D01*
X132184020Y-120722059D01*
X132149191Y-120791410D01*
X132146723Y-120798193D01*
X132146678Y-120798176D01*
X132144122Y-120805532D01*
X132144166Y-120805547D01*
X132141896Y-120812395D01*
X132140128Y-120820959D01*
X132126192Y-120888450D01*
X132113825Y-120940629D01*
X132108298Y-120963951D01*
X132107461Y-120971119D01*
X132107413Y-120971113D01*
X132106623Y-120978844D01*
X132106670Y-120978849D01*
X132106040Y-120986038D01*
X132108300Y-121063679D01*
X132108300Y-122407324D01*
X132107910Y-122414263D01*
X132103501Y-122453400D01*
X132107910Y-122492537D01*
X132108300Y-122499474D01*
X132108300Y-128687706D01*
X132106991Y-128705676D01*
X132103458Y-128729791D01*
X129844500Y-128729791D01*
X129844500Y-109601000D01*
X132421681Y-109601000D01*
X132440927Y-109845554D01*
X132498193Y-110084087D01*
X132592072Y-110310730D01*
X132701819Y-110489824D01*
X132720063Y-110557270D01*
X132698946Y-110623872D01*
X132670402Y-110653879D01*
X132571741Y-110727737D01*
X132571740Y-110727738D01*
X132571739Y-110727739D01*
X132548274Y-110759085D01*
X132484111Y-110844795D01*
X132433011Y-110981795D01*
X132433011Y-110981797D01*
X132426500Y-111042345D01*
X132426500Y-113239654D01*
X132433011Y-113300202D01*
X132433011Y-113300204D01*
X132484111Y-113437204D01*
X132571739Y-113554261D01*
X132688796Y-113641889D01*
X132825799Y-113692989D01*
X132853050Y-113695918D01*
X132886345Y-113699499D01*
X132886362Y-113699500D01*
X135083638Y-113699500D01*
X135083654Y-113699499D01*
X135110692Y-113696591D01*
X135144201Y-113692989D01*
X135281204Y-113641889D01*
X135398261Y-113554261D01*
X135485889Y-113437204D01*
X135536989Y-113300201D01*
X135540591Y-113266692D01*
X135543499Y-113239654D01*
X135543500Y-113239637D01*
X135543500Y-111760000D01*
X165822681Y-111760000D01*
X165841927Y-112004554D01*
X165899193Y-112243087D01*
X165993071Y-112469730D01*
X166121246Y-112678893D01*
X166121248Y-112678896D01*
X166280567Y-112865433D01*
X166467104Y-113024752D01*
X166467106Y-113024753D01*
X166676269Y-113152928D01*
X166783108Y-113197182D01*
X166902908Y-113246805D01*
X167141443Y-113304072D01*
X167386000Y-113323319D01*
X167630557Y-113304072D01*
X167869092Y-113246805D01*
X168095732Y-113152927D01*
X168304896Y-113024752D01*
X168491433Y-112865433D01*
X168650752Y-112678896D01*
X168778927Y-112469732D01*
X168872805Y-112243092D01*
X168930072Y-112004557D01*
X168949319Y-111760000D01*
X168930072Y-111515443D01*
X168877178Y-111295123D01*
X168872806Y-111276912D01*
X168872805Y-111276911D01*
X168872805Y-111276908D01*
X168807614Y-111119523D01*
X168778928Y-111050269D01*
X168669180Y-110871175D01*
X168650936Y-110803729D01*
X168672053Y-110737127D01*
X168700596Y-110707120D01*
X168799261Y-110633261D01*
X168886889Y-110516204D01*
X168932555Y-110393768D01*
X168937988Y-110379204D01*
X168937988Y-110379203D01*
X168937989Y-110379201D01*
X168941591Y-110345692D01*
X168944499Y-110318654D01*
X168944500Y-110318637D01*
X168944500Y-108121362D01*
X168944499Y-108121345D01*
X168941157Y-108090270D01*
X168937989Y-108060799D01*
X168936545Y-108056928D01*
X168915522Y-108000564D01*
X168886889Y-107923796D01*
X168799261Y-107806739D01*
X168682204Y-107719111D01*
X168545203Y-107668011D01*
X168484654Y-107661500D01*
X168484638Y-107661500D01*
X166287362Y-107661500D01*
X166287345Y-107661500D01*
X166226797Y-107668011D01*
X166226795Y-107668011D01*
X166089795Y-107719111D01*
X165972739Y-107806739D01*
X165885111Y-107923795D01*
X165834011Y-108060795D01*
X165834011Y-108060797D01*
X165827500Y-108121345D01*
X165827500Y-110318654D01*
X165834011Y-110379202D01*
X165834011Y-110379204D01*
X165885111Y-110516204D01*
X165972739Y-110633261D01*
X166071402Y-110707119D01*
X166113273Y-110763053D01*
X166118257Y-110832745D01*
X166102819Y-110871175D01*
X165993072Y-111050269D01*
X165899193Y-111276912D01*
X165841927Y-111515445D01*
X165822681Y-111760000D01*
X135543500Y-111760000D01*
X135543500Y-111042362D01*
X135543499Y-111042345D01*
X135540157Y-111011270D01*
X135536989Y-110981799D01*
X135485889Y-110844796D01*
X135398261Y-110727739D01*
X135299596Y-110653879D01*
X135257726Y-110597946D01*
X135252742Y-110528254D01*
X135268181Y-110489823D01*
X135311759Y-110418710D01*
X135363570Y-110371835D01*
X135417486Y-110359500D01*
X140298440Y-110359500D01*
X140365479Y-110379185D01*
X140386121Y-110395819D01*
X140521300Y-110530998D01*
X140708851Y-110662323D01*
X140764045Y-110688060D01*
X140916350Y-110759081D01*
X140916352Y-110759081D01*
X140916357Y-110759084D01*
X141137513Y-110818343D01*
X141300432Y-110832596D01*
X141365598Y-110838298D01*
X141365600Y-110838298D01*
X141365602Y-110838298D01*
X141429071Y-110832745D01*
X141593687Y-110818343D01*
X141814843Y-110759084D01*
X142022349Y-110662323D01*
X142209900Y-110530998D01*
X142357440Y-110383457D01*
X142418760Y-110349975D01*
X142488451Y-110354959D01*
X142544385Y-110396830D01*
X142561299Y-110427806D01*
X142599789Y-110530998D01*
X142614711Y-110571004D01*
X142702339Y-110688061D01*
X142819396Y-110775689D01*
X142933752Y-110818342D01*
X142955098Y-110826304D01*
X142956399Y-110826789D01*
X142983650Y-110829718D01*
X143016945Y-110833299D01*
X143016962Y-110833300D01*
X144714238Y-110833300D01*
X144714254Y-110833299D01*
X144741292Y-110830391D01*
X144774801Y-110826789D01*
X144776102Y-110826304D01*
X144797448Y-110818342D01*
X144911804Y-110775689D01*
X145028861Y-110688061D01*
X145116489Y-110571004D01*
X145167589Y-110434001D01*
X145173180Y-110382000D01*
X145174099Y-110373454D01*
X145174100Y-110373437D01*
X145174100Y-109982001D01*
X149798697Y-109982001D01*
X149818651Y-110210081D01*
X149818652Y-110210089D01*
X149877909Y-110431238D01*
X149877913Y-110431249D01*
X149924426Y-110530996D01*
X149974672Y-110638749D01*
X150105997Y-110826300D01*
X150267895Y-110988198D01*
X150455446Y-111119523D01*
X150580286Y-111177736D01*
X150662945Y-111216281D01*
X150662947Y-111216281D01*
X150662952Y-111216284D01*
X150884108Y-111275543D01*
X151047027Y-111289796D01*
X151112193Y-111295498D01*
X151112195Y-111295498D01*
X151112197Y-111295498D01*
X151169216Y-111290509D01*
X151340282Y-111275543D01*
X151561438Y-111216284D01*
X151768944Y-111119523D01*
X151956495Y-110988198D01*
X152111053Y-110833639D01*
X152172373Y-110800157D01*
X152242064Y-110805141D01*
X152297998Y-110847012D01*
X152314625Y-110882578D01*
X152315886Y-110882108D01*
X152368840Y-111024086D01*
X152368844Y-111024093D01*
X152455004Y-111139187D01*
X152455007Y-111139190D01*
X152570101Y-111225350D01*
X152570108Y-111225354D01*
X152704815Y-111275596D01*
X152704822Y-111275598D01*
X152764350Y-111281999D01*
X152764367Y-111282000D01*
X153362195Y-111282000D01*
X153362195Y-110297686D01*
X153374150Y-110309641D01*
X153487047Y-110367165D01*
X153580714Y-110382000D01*
X153643676Y-110382000D01*
X153737343Y-110367165D01*
X153850240Y-110309641D01*
X153862195Y-110297686D01*
X153862195Y-111282000D01*
X154460023Y-111282000D01*
X154460039Y-111281999D01*
X154519567Y-111275598D01*
X154519574Y-111275596D01*
X154654281Y-111225354D01*
X154654288Y-111225350D01*
X154769382Y-111139190D01*
X154769385Y-111139187D01*
X154855545Y-111024093D01*
X154855549Y-111024086D01*
X154905791Y-110889379D01*
X154905793Y-110889372D01*
X154912194Y-110829844D01*
X154912195Y-110829827D01*
X154912195Y-110232000D01*
X153927881Y-110232000D01*
X153939836Y-110220045D01*
X153997360Y-110107148D01*
X154017181Y-109982000D01*
X153997360Y-109856852D01*
X153939836Y-109743955D01*
X153927881Y-109732000D01*
X154912195Y-109732000D01*
X154912195Y-109134172D01*
X154912194Y-109134155D01*
X154905793Y-109074627D01*
X154905791Y-109074620D01*
X154855549Y-108939913D01*
X154855545Y-108939906D01*
X154769385Y-108824812D01*
X154769382Y-108824809D01*
X154654288Y-108738649D01*
X154654281Y-108738645D01*
X154519574Y-108688403D01*
X154519567Y-108688401D01*
X154460039Y-108682000D01*
X153862195Y-108682000D01*
X153862195Y-109666314D01*
X153850240Y-109654359D01*
X153737343Y-109596835D01*
X153643676Y-109582000D01*
X153580714Y-109582000D01*
X153487047Y-109596835D01*
X153374150Y-109654359D01*
X153362195Y-109666314D01*
X153362195Y-108682000D01*
X152764350Y-108682000D01*
X152704822Y-108688401D01*
X152704815Y-108688403D01*
X152570108Y-108738645D01*
X152570101Y-108738649D01*
X152455007Y-108824809D01*
X152455004Y-108824812D01*
X152368844Y-108939906D01*
X152368840Y-108939913D01*
X152315886Y-109081892D01*
X152313766Y-109081101D01*
X152284831Y-109131911D01*
X152222919Y-109164294D01*
X152153327Y-109158064D01*
X152111050Y-109130357D01*
X151956499Y-108975806D01*
X151956495Y-108975802D01*
X151768944Y-108844477D01*
X151768940Y-108844475D01*
X151561444Y-108747718D01*
X151561433Y-108747714D01*
X151340284Y-108688457D01*
X151340276Y-108688456D01*
X151112197Y-108668502D01*
X151112193Y-108668502D01*
X150884113Y-108688456D01*
X150884105Y-108688457D01*
X150662956Y-108747714D01*
X150662945Y-108747718D01*
X150455449Y-108844475D01*
X150455447Y-108844476D01*
X150455446Y-108844477D01*
X150267895Y-108975802D01*
X150267893Y-108975803D01*
X150267890Y-108975806D01*
X150106001Y-109137695D01*
X149974671Y-109325252D01*
X149974670Y-109325254D01*
X149877913Y-109532750D01*
X149877909Y-109532761D01*
X149818652Y-109753910D01*
X149818651Y-109753918D01*
X149798697Y-109981998D01*
X149798697Y-109982001D01*
X145174100Y-109982001D01*
X145174100Y-108676162D01*
X145174099Y-108676145D01*
X145170757Y-108645070D01*
X145167589Y-108615599D01*
X145116489Y-108478596D01*
X145028861Y-108361539D01*
X144911804Y-108273911D01*
X144774803Y-108222811D01*
X144714254Y-108216300D01*
X144714238Y-108216300D01*
X143016962Y-108216300D01*
X143016945Y-108216300D01*
X142956397Y-108222811D01*
X142956395Y-108222811D01*
X142819395Y-108273911D01*
X142702339Y-108361539D01*
X142614711Y-108478595D01*
X142561299Y-108621793D01*
X142519427Y-108677726D01*
X142453962Y-108702142D01*
X142385690Y-108687289D01*
X142357437Y-108666139D01*
X142209904Y-108518606D01*
X142209900Y-108518602D01*
X142022349Y-108387277D01*
X142022345Y-108387275D01*
X141814849Y-108290518D01*
X141814838Y-108290514D01*
X141593689Y-108231257D01*
X141593681Y-108231256D01*
X141365602Y-108211302D01*
X141365598Y-108211302D01*
X141137518Y-108231256D01*
X141137510Y-108231257D01*
X140916361Y-108290514D01*
X140916350Y-108290518D01*
X140708854Y-108387275D01*
X140708852Y-108387276D01*
X140708851Y-108387277D01*
X140521300Y-108518602D01*
X140521298Y-108518603D01*
X140521295Y-108518606D01*
X140359406Y-108680495D01*
X140359403Y-108680498D01*
X140359402Y-108680500D01*
X140282991Y-108789625D01*
X140228415Y-108833249D01*
X140181418Y-108842500D01*
X135417486Y-108842500D01*
X135350447Y-108822815D01*
X135311758Y-108783290D01*
X135289960Y-108747718D01*
X135249752Y-108682104D01*
X135090433Y-108495567D01*
X134903896Y-108336248D01*
X134903893Y-108336246D01*
X134694730Y-108208071D01*
X134468087Y-108114193D01*
X134229553Y-108056927D01*
X134229554Y-108056927D01*
X133985000Y-108037681D01*
X133740445Y-108056927D01*
X133501912Y-108114193D01*
X133275269Y-108208071D01*
X133066106Y-108336246D01*
X132879567Y-108495567D01*
X132720246Y-108682106D01*
X132592071Y-108891269D01*
X132498193Y-109117912D01*
X132440927Y-109356445D01*
X132421681Y-109601000D01*
X129844500Y-109601000D01*
X129844500Y-101210563D01*
X135480987Y-101210563D01*
X135510613Y-101479813D01*
X135510615Y-101479824D01*
X135571760Y-101713705D01*
X135579128Y-101741888D01*
X135685070Y-101991190D01*
X135747076Y-102092790D01*
X135826179Y-102222405D01*
X135826186Y-102222415D01*
X135999453Y-102430619D01*
X135999459Y-102430624D01*
X136112848Y-102532220D01*
X136201198Y-102611382D01*
X136427110Y-102760844D01*
X136672376Y-102875820D01*
X136672383Y-102875822D01*
X136672385Y-102875823D01*
X136931757Y-102953857D01*
X136931764Y-102953858D01*
X136931769Y-102953860D01*
X137199761Y-102993300D01*
X137199766Y-102993300D01*
X137402836Y-102993300D01*
X137454333Y-102989530D01*
X137605356Y-102978477D01*
X137717958Y-102953393D01*
X137869746Y-102919582D01*
X137869748Y-102919581D01*
X137869753Y-102919580D01*
X138122758Y-102822814D01*
X138358977Y-102690241D01*
X138573377Y-102524688D01*
X138761386Y-102329681D01*
X138918999Y-102109379D01*
X138992987Y-101965469D01*
X139042849Y-101868490D01*
X139042851Y-101868484D01*
X139042856Y-101868475D01*
X139130318Y-101612105D01*
X139179519Y-101345733D01*
X139180746Y-101312163D01*
X165480987Y-101312163D01*
X165510613Y-101581413D01*
X165510615Y-101581424D01*
X165552566Y-101741888D01*
X165579128Y-101843488D01*
X165685070Y-102092790D01*
X165826179Y-102324005D01*
X165826186Y-102324015D01*
X165999453Y-102532219D01*
X165999459Y-102532224D01*
X166201198Y-102712982D01*
X166427110Y-102862444D01*
X166672376Y-102977420D01*
X166672383Y-102977422D01*
X166672385Y-102977423D01*
X166931757Y-103055457D01*
X166931764Y-103055458D01*
X166931769Y-103055460D01*
X167199761Y-103094900D01*
X167199766Y-103094900D01*
X167402836Y-103094900D01*
X167454333Y-103091130D01*
X167605356Y-103080077D01*
X167717958Y-103054993D01*
X167869746Y-103021182D01*
X167869748Y-103021181D01*
X167869753Y-103021180D01*
X168122758Y-102924414D01*
X168358977Y-102791841D01*
X168573377Y-102626288D01*
X168761386Y-102431281D01*
X168918999Y-102210979D01*
X168992987Y-102067069D01*
X169042849Y-101970090D01*
X169042851Y-101970084D01*
X169042856Y-101970075D01*
X169130318Y-101713705D01*
X169179519Y-101447333D01*
X169189412Y-101176635D01*
X169159786Y-100907382D01*
X169091272Y-100645312D01*
X168985330Y-100396010D01*
X168844218Y-100164790D01*
X168843045Y-100163381D01*
X168670946Y-99956580D01*
X168670940Y-99956575D01*
X168469202Y-99775818D01*
X168243292Y-99626357D01*
X168177163Y-99595357D01*
X167998024Y-99511380D01*
X167998019Y-99511378D01*
X167998014Y-99511376D01*
X167738642Y-99433342D01*
X167738628Y-99433339D01*
X167622991Y-99416321D01*
X167470639Y-99393900D01*
X167267569Y-99393900D01*
X167267564Y-99393900D01*
X167065044Y-99408723D01*
X167065031Y-99408725D01*
X166800653Y-99467617D01*
X166800646Y-99467620D01*
X166547639Y-99564387D01*
X166311426Y-99696957D01*
X166097022Y-99862512D01*
X165909022Y-100057509D01*
X165909016Y-100057516D01*
X165751402Y-100277819D01*
X165751399Y-100277824D01*
X165627550Y-100518709D01*
X165627543Y-100518727D01*
X165540084Y-100775085D01*
X165540081Y-100775099D01*
X165490881Y-101041468D01*
X165490880Y-101041475D01*
X165480987Y-101312163D01*
X139180746Y-101312163D01*
X139189412Y-101075035D01*
X139159786Y-100805782D01*
X139091272Y-100543712D01*
X138985330Y-100294410D01*
X138844218Y-100063190D01*
X138754947Y-99955919D01*
X138670946Y-99854980D01*
X138670940Y-99854975D01*
X138469202Y-99674218D01*
X138243292Y-99524757D01*
X138214748Y-99511376D01*
X137998024Y-99409780D01*
X137998019Y-99409778D01*
X137998014Y-99409776D01*
X137738642Y-99331742D01*
X137738628Y-99331739D01*
X137622991Y-99314721D01*
X137470639Y-99292300D01*
X137267569Y-99292300D01*
X137267564Y-99292300D01*
X137065044Y-99307123D01*
X137065031Y-99307125D01*
X136800653Y-99366017D01*
X136800646Y-99366020D01*
X136547639Y-99462787D01*
X136311426Y-99595357D01*
X136097022Y-99760912D01*
X135909022Y-99955909D01*
X135909016Y-99955916D01*
X135751402Y-100176219D01*
X135751399Y-100176224D01*
X135627550Y-100417109D01*
X135627543Y-100417127D01*
X135540084Y-100673485D01*
X135540081Y-100673499D01*
X135521316Y-100775095D01*
X135496881Y-100907386D01*
X135490881Y-100939868D01*
X135490880Y-100939875D01*
X135480987Y-101210563D01*
X129844500Y-101210563D01*
X129844500Y-97913700D01*
X129864185Y-97846661D01*
X129916989Y-97800906D01*
X129968500Y-97789700D01*
X173764700Y-97789700D01*
X173831739Y-97809385D01*
G37*
%TD.AperFunction*%
%TD*%
M02*
