%TF.GenerationSoftware,KiCad,Pcbnew,7.0.9*%
%TF.CreationDate,2026-01-17T17:13:48-05:00*%
%TF.ProjectId,levelConversionOpAmp,6c657665-6c43-46f6-9e76-657273696f6e,rev?*%
%TF.SameCoordinates,Original*%
%TF.FileFunction,Copper,L1,Top*%
%TF.FilePolarity,Positive*%
%FSLAX46Y46*%
G04 Gerber Fmt 4.6, Leading zero omitted, Abs format (unit mm)*
G04 Created by KiCad (PCBNEW 7.0.9) date 2026-01-17 17:13:48*
%MOMM*%
%LPD*%
G01*
G04 APERTURE LIST*
G04 Aperture macros list*
%AMRoundRect*
0 Rectangle with rounded corners*
0 $1 Rounding radius*
0 $2 $3 $4 $5 $6 $7 $8 $9 X,Y pos of 4 corners*
0 Add a 4 corners polygon primitive as box body*
4,1,4,$2,$3,$4,$5,$6,$7,$8,$9,$2,$3,0*
0 Add four circle primitives for the rounded corners*
1,1,$1+$1,$2,$3*
1,1,$1+$1,$4,$5*
1,1,$1+$1,$6,$7*
1,1,$1+$1,$8,$9*
0 Add four rect primitives between the rounded corners*
20,1,$1+$1,$2,$3,$4,$5,0*
20,1,$1+$1,$4,$5,$6,$7,0*
20,1,$1+$1,$6,$7,$8,$9,0*
20,1,$1+$1,$8,$9,$2,$3,0*%
G04 Aperture macros list end*
%TA.AperFunction,SMDPad,CuDef*%
%ADD10RoundRect,0.250000X0.650000X-0.412500X0.650000X0.412500X-0.650000X0.412500X-0.650000X-0.412500X0*%
%TD*%
%TA.AperFunction,ComponentPad*%
%ADD11R,1.600000X1.600000*%
%TD*%
%TA.AperFunction,ComponentPad*%
%ADD12C,1.600000*%
%TD*%
%TA.AperFunction,SMDPad,CuDef*%
%ADD13RoundRect,0.250000X0.412500X0.650000X-0.412500X0.650000X-0.412500X-0.650000X0.412500X-0.650000X0*%
%TD*%
%TA.AperFunction,ComponentPad*%
%ADD14R,2.100000X2.100000*%
%TD*%
%TA.AperFunction,ComponentPad*%
%ADD15C,2.100000*%
%TD*%
%TA.AperFunction,SMDPad,CuDef*%
%ADD16RoundRect,0.150000X-0.650000X-0.150000X0.650000X-0.150000X0.650000X0.150000X-0.650000X0.150000X0*%
%TD*%
%TA.AperFunction,ComponentPad*%
%ADD17C,2.340000*%
%TD*%
%TA.AperFunction,SMDPad,CuDef*%
%ADD18RoundRect,0.250000X-0.625000X0.400000X-0.625000X-0.400000X0.625000X-0.400000X0.625000X0.400000X0*%
%TD*%
%TA.AperFunction,SMDPad,CuDef*%
%ADD19RoundRect,0.250000X0.400000X0.625000X-0.400000X0.625000X-0.400000X-0.625000X0.400000X-0.625000X0*%
%TD*%
%TA.AperFunction,SMDPad,CuDef*%
%ADD20RoundRect,0.250000X-0.400000X-0.625000X0.400000X-0.625000X0.400000X0.625000X-0.400000X0.625000X0*%
%TD*%
%TA.AperFunction,SMDPad,CuDef*%
%ADD21RoundRect,0.250000X0.625000X-0.400000X0.625000X0.400000X-0.625000X0.400000X-0.625000X-0.400000X0*%
%TD*%
%TA.AperFunction,ComponentPad*%
%ADD22R,1.500000X1.500000*%
%TD*%
%TA.AperFunction,ComponentPad*%
%ADD23C,1.500000*%
%TD*%
%TA.AperFunction,ViaPad*%
%ADD24C,0.500000*%
%TD*%
%TA.AperFunction,Conductor*%
%ADD25C,0.500000*%
%TD*%
G04 APERTURE END LIST*
D10*
%TO.P,C5,2*%
%TO.N,Net-(Q1-B)*%
X140004800Y-125132700D03*
%TO.P,C5,1*%
%TO.N,Net-(Q1-E)*%
X140004800Y-128257700D03*
%TD*%
D11*
%TO.P,C3,1*%
%TO.N,V+*%
X153612195Y-109982000D03*
D12*
%TO.P,C3,2*%
%TO.N,GND*%
X151112195Y-109982000D03*
%TD*%
D13*
%TO.P,C2,1*%
%TO.N,V+*%
X157430000Y-119176800D03*
%TO.P,C2,2*%
%TO.N,GND*%
X154305000Y-119176800D03*
%TD*%
D11*
%TO.P,C1,1*%
%TO.N,Net-(U1B-+)*%
X143865600Y-109524800D03*
D12*
%TO.P,C1,2*%
%TO.N,SIGIN*%
X141365600Y-109524800D03*
%TD*%
D14*
%TO.P,J3,1,Pin_1*%
%TO.N,SIGOUT*%
X167386000Y-109220000D03*
D15*
%TO.P,J3,2,Pin_2*%
%TO.N,GND*%
X167386000Y-111760000D03*
%TD*%
D14*
%TO.P,J2,1,Pin_1*%
%TO.N,GND*%
X133985000Y-112141000D03*
D15*
%TO.P,J2,2,Pin_2*%
%TO.N,SIGIN*%
X133985000Y-109601000D03*
%TD*%
%TO.P,J1,2,Pin_2*%
%TO.N,+48V*%
X135305800Y-131191000D03*
D14*
%TO.P,J1,1,Pin_1*%
%TO.N,GND*%
X135305800Y-133731000D03*
%TD*%
D16*
%TO.P,U1,8,V+*%
%TO.N,V+*%
X157117600Y-121539000D03*
%TO.P,U1,7*%
%TO.N,Net-(C4-Pad1)*%
X157117600Y-122809000D03*
%TO.P,U1,6,-*%
%TO.N,Net-(U1B--)*%
X157117600Y-124079000D03*
%TO.P,U1,5,+*%
%TO.N,Net-(U1B-+)*%
X157117600Y-125349000D03*
%TO.P,U1,4,V-*%
%TO.N,GND*%
X149917600Y-125349000D03*
%TO.P,U1,3,+*%
%TO.N,Net-(U1A-+)*%
X149917600Y-124079000D03*
%TO.P,U1,2,-*%
%TO.N,VREF*%
X149917600Y-122809000D03*
%TO.P,U1,1*%
X149917600Y-121539000D03*
%TD*%
D17*
%TO.P,RV1,1,1*%
%TO.N,Net-(C4-Pad1)*%
X169084000Y-131231000D03*
%TO.P,RV1,2,2*%
%TO.N,Net-(R3-Pad1)*%
X164084000Y-133731000D03*
%TO.P,RV1,3,3*%
%TO.N,unconnected-(RV1-Pad3)*%
X159084000Y-131231000D03*
%TD*%
D18*
%TO.P,R9,1*%
%TO.N,V+*%
X144627600Y-117931600D03*
%TO.P,R9,2*%
%TO.N,GND*%
X144627600Y-121031600D03*
%TD*%
D19*
%TO.P,R8,1*%
%TO.N,Net-(U1A-+)*%
X143917000Y-133731000D03*
%TO.P,R8,2*%
%TO.N,GND*%
X140817000Y-133731000D03*
%TD*%
%TO.P,R7,2*%
%TO.N,Net-(U1A-+)*%
X140817000Y-131191000D03*
%TO.P,R7,1*%
%TO.N,Net-(Q1-E)*%
X143917000Y-131191000D03*
%TD*%
D20*
%TO.P,R6,1*%
%TO.N,Net-(Q1-B)*%
X132866800Y-125120400D03*
%TO.P,R6,2*%
%TO.N,GND*%
X135966800Y-125120400D03*
%TD*%
%TO.P,R5,1*%
%TO.N,+48V*%
X132866800Y-122453400D03*
%TO.P,R5,2*%
%TO.N,Net-(Q1-B)*%
X135966800Y-122453400D03*
%TD*%
D21*
%TO.P,R4,1*%
%TO.N,GND*%
X162433000Y-112167000D03*
%TO.P,R4,2*%
%TO.N,SIGOUT*%
X162433000Y-109067000D03*
%TD*%
D19*
%TO.P,R3,1*%
%TO.N,Net-(R3-Pad1)*%
X162548300Y-124002800D03*
%TO.P,R3,2*%
%TO.N,Net-(U1B--)*%
X159448300Y-124002800D03*
%TD*%
D18*
%TO.P,R2,1*%
%TO.N,Net-(U1B--)*%
X150228700Y-116356800D03*
%TO.P,R2,2*%
%TO.N,VREF*%
X150228700Y-119456800D03*
%TD*%
D21*
%TO.P,R1,2*%
%TO.N,Net-(U1B-+)*%
X147942700Y-116356800D03*
%TO.P,R1,1*%
%TO.N,VREF*%
X147942700Y-119456800D03*
%TD*%
D22*
%TO.P,Q2,1,E*%
%TO.N,V+*%
X140436600Y-118562800D03*
D23*
%TO.P,Q2,2,B*%
%TO.N,Net-(Q1-E)*%
X137896600Y-118562800D03*
%TO.P,Q2,3,C*%
%TO.N,+48V*%
X135356600Y-118562800D03*
%TD*%
D22*
%TO.P,Q1,1,E*%
%TO.N,Net-(Q1-E)*%
X144145000Y-128397000D03*
D23*
%TO.P,Q1,2,B*%
%TO.N,Net-(Q1-B)*%
X144145000Y-125857000D03*
%TO.P,Q1,3,C*%
%TO.N,+48V*%
X144145000Y-123317000D03*
%TD*%
D13*
%TO.P,C7,1*%
%TO.N,V+*%
X142938900Y-115214400D03*
%TO.P,C7,2*%
%TO.N,Net-(Q1-E)*%
X139813900Y-115214400D03*
%TD*%
D11*
%TO.P,C6,1*%
%TO.N,Net-(U1A-+)*%
X151257000Y-130791606D03*
D12*
%TO.P,C6,2*%
%TO.N,GND*%
X151257000Y-133291606D03*
%TD*%
D11*
%TO.P,C4,1*%
%TO.N,Net-(C4-Pad1)*%
X167436800Y-122624194D03*
D12*
%TO.P,C4,2*%
%TO.N,SIGOUT*%
X167436800Y-120124194D03*
%TD*%
D24*
%TO.N,Net-(Q1-E)*%
X137058400Y-121158000D03*
X137922000Y-124256800D03*
%TO.N,Net-(U1A-+)*%
X143917000Y-133731000D03*
%TO.N,V+*%
X157430000Y-119176800D03*
X144627600Y-117931600D03*
X142938900Y-115214400D03*
%TO.N,+48V*%
X132866800Y-122453400D03*
%TD*%
D25*
%TO.N,SIGOUT*%
X167436800Y-120124194D02*
X168886000Y-118674994D01*
X168886000Y-118674994D02*
X168886000Y-110720000D01*
X168886000Y-110720000D02*
X167386000Y-109220000D01*
%TO.N,Net-(C4-Pad1)*%
X167436800Y-122624194D02*
X161347806Y-122624194D01*
X155867600Y-125751684D02*
X155867600Y-123227600D01*
X161347806Y-122624194D02*
X161347806Y-125115122D01*
X161347806Y-125115122D02*
X160363928Y-126099000D01*
X160363928Y-126099000D02*
X156214916Y-126099000D01*
X156286200Y-122809000D02*
X157117600Y-122809000D01*
X156214916Y-126099000D02*
X155867600Y-125751684D01*
X155867600Y-123227600D02*
X156286200Y-122809000D01*
X169084000Y-131231000D02*
X169084000Y-124271394D01*
X169084000Y-124271394D02*
X167436800Y-122624194D01*
%TO.N,Net-(R3-Pad1)*%
X162548300Y-124002800D02*
X162548300Y-132195300D01*
X162548300Y-132195300D02*
X164084000Y-133731000D01*
%TO.N,SIGOUT*%
X162433000Y-109067000D02*
X167233000Y-109067000D01*
X167233000Y-109067000D02*
X167386000Y-109220000D01*
%TO.N,GND*%
X154305000Y-119176800D02*
X154305000Y-130243606D01*
X154305000Y-130243606D02*
X151257000Y-133291606D01*
%TO.N,Net-(U1A-+)*%
X151257000Y-130791606D02*
X151417599Y-130631007D01*
X151417599Y-130631007D02*
X151417599Y-124779000D01*
X151417599Y-124779000D02*
X150717599Y-124079000D01*
X150717599Y-124079000D02*
X149917600Y-124079000D01*
%TO.N,Net-(U1B-+)*%
X157117600Y-125349000D02*
X160123978Y-125349000D01*
X160123978Y-125349000D02*
X160548300Y-124924678D01*
X160548300Y-124924678D02*
X160548300Y-119245772D01*
X160548300Y-119245772D02*
X156559328Y-115256800D01*
X156559328Y-115256800D02*
X149042700Y-115256800D01*
X149042700Y-115256800D02*
X147942700Y-116356800D01*
%TO.N,Net-(U1B--)*%
X159448300Y-124002800D02*
X157193800Y-124002800D01*
X157193800Y-124002800D02*
X157117600Y-124079000D01*
X150228700Y-116356800D02*
X156669378Y-116356800D01*
X156669378Y-116356800D02*
X159448300Y-119135722D01*
X159448300Y-119135722D02*
X159448300Y-124002800D01*
%TO.N,Net-(U1B-+)*%
X143865600Y-109524800D02*
X143865600Y-112279700D01*
X143865600Y-112279700D02*
X147942700Y-116356800D01*
%TO.N,GND*%
X135763000Y-112141000D02*
X140766800Y-107137200D01*
X133985000Y-112141000D02*
X135763000Y-112141000D01*
X140766800Y-107137200D02*
X148267395Y-107137200D01*
X148267395Y-107137200D02*
X151112195Y-109982000D01*
%TO.N,SIGIN*%
X141289400Y-109601000D02*
X141365600Y-109524800D01*
%TO.N,Net-(Q1-E)*%
X137896600Y-118562800D02*
X137896600Y-117131700D01*
X137896600Y-117131700D02*
X139813900Y-115214400D01*
X137058400Y-121158000D02*
X137058400Y-119401000D01*
X137058400Y-119401000D02*
X137896600Y-118562800D01*
X140004800Y-128257700D02*
X137922000Y-126174900D01*
X137922000Y-126174900D02*
X137922000Y-124256800D01*
%TO.N,Net-(U1A-+)*%
X140817000Y-131191000D02*
X141377000Y-131191000D01*
X141377000Y-131191000D02*
X143917000Y-133731000D01*
%TO.N,Net-(Q1-E)*%
X144145000Y-128397000D02*
X144145000Y-130963000D01*
X144145000Y-130963000D02*
X143917000Y-131191000D01*
X140004800Y-128257700D02*
X144005700Y-128257700D01*
X144005700Y-128257700D02*
X144145000Y-128397000D01*
%TO.N,Net-(Q1-B)*%
X140004800Y-125132700D02*
X143420700Y-125132700D01*
X143420700Y-125132700D02*
X144145000Y-125857000D01*
X135966800Y-122453400D02*
X137325500Y-122453400D01*
X137325500Y-122453400D02*
X140004800Y-125132700D01*
%TO.N,GND*%
X148221400Y-124625400D02*
X148945000Y-125349000D01*
X144627600Y-121031600D02*
X148221400Y-124625400D01*
X142142000Y-135056000D02*
X146253200Y-135056000D01*
X146253200Y-135056000D02*
X149492606Y-135056000D01*
X148221400Y-124625400D02*
X146253200Y-126593600D01*
X146253200Y-126593600D02*
X146253200Y-135056000D01*
%TO.N,Net-(Q1-B)*%
X135966800Y-122453400D02*
X135533800Y-122453400D01*
X135533800Y-122453400D02*
X132866800Y-125120400D01*
%TO.N,V+*%
X157430000Y-119176800D02*
X157430000Y-121226600D01*
X157430000Y-121226600D02*
X157117600Y-121539000D01*
%TO.N,VREF*%
X150228700Y-119456800D02*
X150228700Y-122497900D01*
X150228700Y-122497900D02*
X149917600Y-122809000D01*
X147942700Y-119456800D02*
X150228700Y-119456800D01*
%TO.N,GND*%
X140817000Y-133731000D02*
X142142000Y-135056000D01*
X149492606Y-135056000D02*
X151257000Y-133291606D01*
X162433000Y-112167000D02*
X166979000Y-112167000D01*
X166979000Y-112167000D02*
X167386000Y-111760000D01*
X151112195Y-109982000D02*
X153297195Y-112167000D01*
X153297195Y-112167000D02*
X162433000Y-112167000D01*
X135305800Y-133731000D02*
X130708400Y-129133600D01*
X130708400Y-129133600D02*
X130708400Y-115417600D01*
X130708400Y-115417600D02*
X133985000Y-112141000D01*
X148945000Y-125349000D02*
X149917600Y-125349000D01*
X140817000Y-133731000D02*
X135966800Y-128880800D01*
X135966800Y-128880800D02*
X135966800Y-125120400D01*
X135305800Y-133731000D02*
X140817000Y-133731000D01*
%TD*%
%TA.AperFunction,Conductor*%
%TO.N,GND*%
G36*
X173831739Y-97809385D02*
G01*
X173877494Y-97862189D01*
X173888700Y-97913700D01*
X173888700Y-144656300D01*
X173869015Y-144723339D01*
X173816211Y-144769094D01*
X173764700Y-144780300D01*
X129968500Y-144780300D01*
X129901461Y-144760615D01*
X129855706Y-144707811D01*
X129844500Y-144656300D01*
X129844500Y-141291763D01*
X135300587Y-141291763D01*
X135330213Y-141561013D01*
X135330215Y-141561024D01*
X135391360Y-141794905D01*
X135398728Y-141823088D01*
X135504670Y-142072390D01*
X135566676Y-142173990D01*
X135645779Y-142303605D01*
X135645786Y-142303615D01*
X135819053Y-142511819D01*
X135819059Y-142511824D01*
X135932448Y-142613420D01*
X136020798Y-142692582D01*
X136246710Y-142842044D01*
X136491976Y-142957020D01*
X136491983Y-142957022D01*
X136491985Y-142957023D01*
X136751357Y-143035057D01*
X136751364Y-143035058D01*
X136751369Y-143035060D01*
X137019361Y-143074500D01*
X137019366Y-143074500D01*
X137222436Y-143074500D01*
X137273933Y-143070730D01*
X137424956Y-143059677D01*
X137537558Y-143034593D01*
X137689346Y-143000782D01*
X137689348Y-143000781D01*
X137689353Y-143000780D01*
X137942358Y-142904014D01*
X138178577Y-142771441D01*
X138392977Y-142605888D01*
X138580986Y-142410881D01*
X138738599Y-142190579D01*
X138812587Y-142046669D01*
X138862449Y-141949690D01*
X138862451Y-141949684D01*
X138862456Y-141949675D01*
X138949918Y-141693305D01*
X138999119Y-141426933D01*
X139000346Y-141393363D01*
X165300587Y-141393363D01*
X165330213Y-141662613D01*
X165330215Y-141662624D01*
X165372166Y-141823088D01*
X165398728Y-141924688D01*
X165504670Y-142173990D01*
X165645779Y-142405205D01*
X165645786Y-142405215D01*
X165819053Y-142613419D01*
X165819059Y-142613424D01*
X166020798Y-142794182D01*
X166246710Y-142943644D01*
X166491976Y-143058620D01*
X166491983Y-143058622D01*
X166491985Y-143058623D01*
X166751357Y-143136657D01*
X166751364Y-143136658D01*
X166751369Y-143136660D01*
X167019361Y-143176100D01*
X167019366Y-143176100D01*
X167222436Y-143176100D01*
X167273933Y-143172330D01*
X167424956Y-143161277D01*
X167537558Y-143136193D01*
X167689346Y-143102382D01*
X167689348Y-143102381D01*
X167689353Y-143102380D01*
X167942358Y-143005614D01*
X168178577Y-142873041D01*
X168392977Y-142707488D01*
X168580986Y-142512481D01*
X168738599Y-142292179D01*
X168812587Y-142148269D01*
X168862449Y-142051290D01*
X168862451Y-142051284D01*
X168862456Y-142051275D01*
X168949918Y-141794905D01*
X168999119Y-141528533D01*
X169009012Y-141257835D01*
X168979386Y-140988582D01*
X168910872Y-140726512D01*
X168804930Y-140477210D01*
X168663818Y-140245990D01*
X168662645Y-140244581D01*
X168490546Y-140037780D01*
X168490540Y-140037775D01*
X168288802Y-139857018D01*
X168062892Y-139707557D01*
X167996763Y-139676557D01*
X167817624Y-139592580D01*
X167817619Y-139592578D01*
X167817614Y-139592576D01*
X167558242Y-139514542D01*
X167558228Y-139514539D01*
X167442591Y-139497521D01*
X167290239Y-139475100D01*
X167087169Y-139475100D01*
X167087164Y-139475100D01*
X166884644Y-139489923D01*
X166884631Y-139489925D01*
X166620253Y-139548817D01*
X166620246Y-139548820D01*
X166367239Y-139645587D01*
X166131026Y-139778157D01*
X165916622Y-139943712D01*
X165728622Y-140138709D01*
X165728616Y-140138716D01*
X165571002Y-140359019D01*
X165570999Y-140359024D01*
X165447150Y-140599909D01*
X165447143Y-140599927D01*
X165359684Y-140856285D01*
X165359681Y-140856299D01*
X165310481Y-141122668D01*
X165310480Y-141122675D01*
X165300587Y-141393363D01*
X139000346Y-141393363D01*
X139009012Y-141156235D01*
X138979386Y-140886982D01*
X138910872Y-140624912D01*
X138804930Y-140375610D01*
X138663818Y-140144390D01*
X138574547Y-140037119D01*
X138490546Y-139936180D01*
X138490540Y-139936175D01*
X138288802Y-139755418D01*
X138062892Y-139605957D01*
X138034348Y-139592576D01*
X137817624Y-139490980D01*
X137817619Y-139490978D01*
X137817614Y-139490976D01*
X137558242Y-139412942D01*
X137558228Y-139412939D01*
X137442591Y-139395921D01*
X137290239Y-139373500D01*
X137087169Y-139373500D01*
X137087164Y-139373500D01*
X136884644Y-139388323D01*
X136884631Y-139388325D01*
X136620253Y-139447217D01*
X136620246Y-139447220D01*
X136367239Y-139543987D01*
X136131026Y-139676557D01*
X135916622Y-139842112D01*
X135728622Y-140037109D01*
X135728616Y-140037116D01*
X135571002Y-140257419D01*
X135570999Y-140257424D01*
X135447150Y-140498309D01*
X135447143Y-140498327D01*
X135359684Y-140754685D01*
X135359681Y-140754699D01*
X135340916Y-140856295D01*
X135316481Y-140988586D01*
X135310481Y-141021068D01*
X135310480Y-141021075D01*
X135300587Y-141291763D01*
X129844500Y-141291763D01*
X129844500Y-131191000D01*
X133742481Y-131191000D01*
X133761727Y-131435554D01*
X133818993Y-131674087D01*
X133818994Y-131674091D01*
X133818995Y-131674092D01*
X133912873Y-131900732D01*
X133935500Y-131937656D01*
X134027079Y-132087102D01*
X134045323Y-132154548D01*
X134024206Y-132221150D01*
X133995663Y-132251157D01*
X133898609Y-132323812D01*
X133812449Y-132438906D01*
X133812445Y-132438913D01*
X133762203Y-132573620D01*
X133762201Y-132573627D01*
X133755800Y-132633155D01*
X133755800Y-133481000D01*
X134810948Y-133481000D01*
X134762241Y-133618047D01*
X134751923Y-133768886D01*
X134782684Y-133916915D01*
X134815890Y-133981000D01*
X133755800Y-133981000D01*
X133755800Y-134828844D01*
X133762201Y-134888372D01*
X133762203Y-134888379D01*
X133812445Y-135023086D01*
X133812449Y-135023093D01*
X133898609Y-135138187D01*
X133898612Y-135138190D01*
X134013706Y-135224350D01*
X134013713Y-135224354D01*
X134148420Y-135274596D01*
X134148427Y-135274598D01*
X134207955Y-135280999D01*
X134207972Y-135281000D01*
X135055800Y-135281000D01*
X135055800Y-134222683D01*
X135084619Y-134240209D01*
X135230204Y-134281000D01*
X135343422Y-134281000D01*
X135455583Y-134265584D01*
X135555800Y-134222053D01*
X135555800Y-135281000D01*
X136403628Y-135281000D01*
X136403644Y-135280999D01*
X136463172Y-135274598D01*
X136463179Y-135274596D01*
X136597886Y-135224354D01*
X136597893Y-135224350D01*
X136712987Y-135138190D01*
X136712990Y-135138187D01*
X136799150Y-135023093D01*
X136799154Y-135023086D01*
X136849396Y-134888379D01*
X136849398Y-134888372D01*
X136855799Y-134828844D01*
X136855800Y-134828827D01*
X136855800Y-133981000D01*
X139667001Y-133981000D01*
X139667001Y-134405986D01*
X139677494Y-134508697D01*
X139732641Y-134675119D01*
X139732643Y-134675124D01*
X139824684Y-134824345D01*
X139948654Y-134948315D01*
X140097875Y-135040356D01*
X140097880Y-135040358D01*
X140264302Y-135095505D01*
X140264309Y-135095506D01*
X140367019Y-135105999D01*
X140566999Y-135105999D01*
X140567000Y-135105998D01*
X140567000Y-133981000D01*
X141067000Y-133981000D01*
X141067000Y-135105999D01*
X141266972Y-135105999D01*
X141266986Y-135105998D01*
X141369697Y-135095505D01*
X141536119Y-135040358D01*
X141536124Y-135040356D01*
X141685345Y-134948315D01*
X141809315Y-134824345D01*
X141901356Y-134675124D01*
X141901358Y-134675119D01*
X141956505Y-134508697D01*
X141956506Y-134508690D01*
X141966999Y-134405986D01*
X141967000Y-134405973D01*
X141967000Y-133981000D01*
X141067000Y-133981000D01*
X140567000Y-133981000D01*
X139667001Y-133981000D01*
X136855800Y-133981000D01*
X135800652Y-133981000D01*
X135849359Y-133843953D01*
X135859677Y-133693114D01*
X135828916Y-133545085D01*
X135795710Y-133481000D01*
X136855800Y-133481000D01*
X136855800Y-132633172D01*
X136855799Y-132633155D01*
X136849398Y-132573627D01*
X136849396Y-132573620D01*
X136799154Y-132438913D01*
X136799150Y-132438906D01*
X136712990Y-132323812D01*
X136712987Y-132323809D01*
X136615937Y-132251157D01*
X136574066Y-132195223D01*
X136569082Y-132125532D01*
X136584520Y-132087102D01*
X136698727Y-131900732D01*
X136792605Y-131674092D01*
X136849872Y-131435557D01*
X136869119Y-131191000D01*
X136849872Y-130946443D01*
X136792605Y-130707908D01*
X136712891Y-130515462D01*
X136698728Y-130481269D01*
X136570553Y-130272106D01*
X136570552Y-130272104D01*
X136411233Y-130085567D01*
X136224696Y-129926248D01*
X136206362Y-129915013D01*
X136015530Y-129798071D01*
X135788887Y-129704193D01*
X135550353Y-129646927D01*
X135550354Y-129646927D01*
X135305800Y-129627681D01*
X135061245Y-129646927D01*
X134822712Y-129704193D01*
X134596069Y-129798071D01*
X134386906Y-129926246D01*
X134200367Y-130085567D01*
X134041046Y-130272106D01*
X133912871Y-130481269D01*
X133818993Y-130707912D01*
X133761727Y-130946445D01*
X133742481Y-131191000D01*
X129844500Y-131191000D01*
X129844500Y-125795937D01*
X131708300Y-125795937D01*
X131708301Y-125795953D01*
X131718913Y-125899827D01*
X131774684Y-126068135D01*
X131774686Y-126068140D01*
X131794512Y-126100282D01*
X131867770Y-126219052D01*
X131993148Y-126344430D01*
X132144062Y-126437515D01*
X132312374Y-126493287D01*
X132416255Y-126503900D01*
X133317344Y-126503899D01*
X133421226Y-126493287D01*
X133589538Y-126437515D01*
X133740452Y-126344430D01*
X133865830Y-126219052D01*
X133958915Y-126068138D01*
X134014687Y-125899826D01*
X134025300Y-125795945D01*
X134025299Y-125370400D01*
X134816801Y-125370400D01*
X134816801Y-125795386D01*
X134827294Y-125898097D01*
X134882441Y-126064519D01*
X134882443Y-126064524D01*
X134974484Y-126213745D01*
X135098454Y-126337715D01*
X135247675Y-126429756D01*
X135247680Y-126429758D01*
X135414102Y-126484905D01*
X135414109Y-126484906D01*
X135516819Y-126495399D01*
X135716799Y-126495399D01*
X135716800Y-126495398D01*
X135716800Y-125370400D01*
X134816801Y-125370400D01*
X134025299Y-125370400D01*
X134025299Y-125085941D01*
X134044983Y-125018903D01*
X134061613Y-124998266D01*
X134605121Y-124454758D01*
X134666442Y-124421275D01*
X134736134Y-124426259D01*
X134792067Y-124468131D01*
X134816484Y-124533595D01*
X134816800Y-124542441D01*
X134816800Y-124870400D01*
X136092800Y-124870400D01*
X136159839Y-124890085D01*
X136205594Y-124942889D01*
X136216800Y-124994400D01*
X136216800Y-126495399D01*
X136416772Y-126495399D01*
X136416786Y-126495398D01*
X136519497Y-126484905D01*
X136685919Y-126429758D01*
X136685924Y-126429756D01*
X136835142Y-126337717D01*
X136959483Y-126213376D01*
X137020806Y-126179891D01*
X137090498Y-126184875D01*
X137146432Y-126226746D01*
X137170693Y-126290247D01*
X137174112Y-126329327D01*
X137175572Y-126336394D01*
X137175526Y-126336403D01*
X137177209Y-126343994D01*
X137177254Y-126343984D01*
X137178919Y-126351010D01*
X137205473Y-126423965D01*
X137228444Y-126493287D01*
X137229886Y-126497637D01*
X137232940Y-126504186D01*
X137232896Y-126504206D01*
X137236284Y-126511204D01*
X137236327Y-126511183D01*
X137239568Y-126517637D01*
X137282232Y-126582504D01*
X137295189Y-126603510D01*
X137322970Y-126648551D01*
X137322972Y-126648553D01*
X137327451Y-126654218D01*
X137327413Y-126654247D01*
X137332320Y-126660272D01*
X137332357Y-126660242D01*
X137337002Y-126665778D01*
X137393482Y-126719063D01*
X138559981Y-127885562D01*
X138593466Y-127946885D01*
X138596300Y-127973243D01*
X138596300Y-128720737D01*
X138596301Y-128720753D01*
X138606913Y-128824626D01*
X138662685Y-128992938D01*
X138755770Y-129143852D01*
X138881148Y-129269230D01*
X139032062Y-129362315D01*
X139200374Y-129418087D01*
X139304255Y-129428700D01*
X140705344Y-129428699D01*
X140809226Y-129418087D01*
X140977538Y-129362315D01*
X141128452Y-129269230D01*
X141253830Y-129143852D01*
X141296236Y-129075100D01*
X141348182Y-129028379D01*
X141401773Y-129016200D01*
X142762500Y-129016200D01*
X142829539Y-129035885D01*
X142875294Y-129088689D01*
X142886500Y-129140200D01*
X142886500Y-129195654D01*
X142893011Y-129256202D01*
X142893011Y-129256204D01*
X142931393Y-129359106D01*
X142944111Y-129393204D01*
X143031739Y-129510261D01*
X143148796Y-129597889D01*
X143191878Y-129613958D01*
X143232007Y-129628926D01*
X143287940Y-129670798D01*
X143312356Y-129736262D01*
X143297504Y-129804535D01*
X143248098Y-129853940D01*
X143227676Y-129862813D01*
X143194264Y-129873884D01*
X143194259Y-129873886D01*
X143043346Y-129966971D01*
X142917971Y-130092346D01*
X142824886Y-130243259D01*
X142824884Y-130243264D01*
X142769113Y-130411572D01*
X142758500Y-130515447D01*
X142758500Y-131200457D01*
X142738815Y-131267496D01*
X142686011Y-131313251D01*
X142616853Y-131323195D01*
X142553297Y-131294170D01*
X142546819Y-131288138D01*
X142011818Y-130753137D01*
X141978333Y-130691814D01*
X141975499Y-130665456D01*
X141975499Y-130515462D01*
X141975498Y-130515446D01*
X141973990Y-130500683D01*
X141964887Y-130411574D01*
X141909115Y-130243262D01*
X141816030Y-130092348D01*
X141690652Y-129966970D01*
X141539738Y-129873885D01*
X141479547Y-129853940D01*
X141371427Y-129818113D01*
X141267546Y-129807500D01*
X140366462Y-129807500D01*
X140366446Y-129807501D01*
X140262572Y-129818113D01*
X140094264Y-129873884D01*
X140094259Y-129873886D01*
X139943346Y-129966971D01*
X139817971Y-130092346D01*
X139724886Y-130243259D01*
X139724884Y-130243264D01*
X139669113Y-130411572D01*
X139658500Y-130515447D01*
X139658500Y-131866537D01*
X139658501Y-131866553D01*
X139669113Y-131970427D01*
X139724884Y-132138735D01*
X139724886Y-132138740D01*
X139731200Y-132148976D01*
X139807885Y-132273302D01*
X139817971Y-132289653D01*
X139907647Y-132379329D01*
X139941132Y-132440652D01*
X139936148Y-132510344D01*
X139907648Y-132554691D01*
X139824682Y-132637657D01*
X139732643Y-132786875D01*
X139732641Y-132786880D01*
X139677494Y-132953302D01*
X139677493Y-132953309D01*
X139667000Y-133056013D01*
X139667000Y-133481000D01*
X141966999Y-133481000D01*
X141966999Y-133153042D01*
X141986684Y-133086003D01*
X142039488Y-133040248D01*
X142108646Y-133030304D01*
X142172202Y-133059329D01*
X142178680Y-133065361D01*
X142722181Y-133608862D01*
X142755666Y-133670185D01*
X142758500Y-133696543D01*
X142758500Y-134406537D01*
X142758501Y-134406553D01*
X142769113Y-134510427D01*
X142791089Y-134576747D01*
X142824885Y-134678738D01*
X142917970Y-134829652D01*
X143043348Y-134955030D01*
X143194262Y-135048115D01*
X143362574Y-135103887D01*
X143466455Y-135114500D01*
X144367544Y-135114499D01*
X144471426Y-135103887D01*
X144639738Y-135048115D01*
X144790652Y-134955030D01*
X144916030Y-134829652D01*
X145009115Y-134678738D01*
X145064887Y-134510426D01*
X145075500Y-134406545D01*
X145075499Y-133055456D01*
X145064887Y-132951574D01*
X145009115Y-132783262D01*
X144916030Y-132632348D01*
X144832363Y-132548681D01*
X144798878Y-132487358D01*
X144803862Y-132417666D01*
X144832363Y-132373319D01*
X144855956Y-132349726D01*
X144916030Y-132289652D01*
X145009115Y-132138738D01*
X145064887Y-131970426D01*
X145075500Y-131866545D01*
X145075499Y-130515456D01*
X145064887Y-130411574D01*
X145009115Y-130243262D01*
X144921960Y-130101963D01*
X144903500Y-130036867D01*
X144903500Y-129770898D01*
X144923185Y-129703859D01*
X144975989Y-129658104D01*
X144998992Y-129650220D01*
X145004195Y-129648989D01*
X145004201Y-129648989D01*
X145141204Y-129597889D01*
X145258261Y-129510261D01*
X145345889Y-129393204D01*
X145396989Y-129256201D01*
X145400591Y-129222692D01*
X145403499Y-129195654D01*
X145403500Y-129195637D01*
X145403500Y-127598362D01*
X145403499Y-127598345D01*
X145400157Y-127567270D01*
X145396989Y-127537799D01*
X145345889Y-127400796D01*
X145258261Y-127283739D01*
X145141204Y-127196111D01*
X145004203Y-127145011D01*
X144943654Y-127138500D01*
X144943638Y-127138500D01*
X144902234Y-127138500D01*
X144835195Y-127118815D01*
X144789440Y-127066011D01*
X144779496Y-126996853D01*
X144808521Y-126933297D01*
X144831110Y-126912925D01*
X144957038Y-126824749D01*
X145112749Y-126669038D01*
X145239056Y-126488654D01*
X145332120Y-126289076D01*
X145389115Y-126076371D01*
X145408307Y-125857000D01*
X145389115Y-125637629D01*
X145378765Y-125599001D01*
X148620304Y-125599001D01*
X148620499Y-125601486D01*
X148666318Y-125759198D01*
X148749914Y-125900552D01*
X148749921Y-125900561D01*
X148866038Y-126016678D01*
X148866047Y-126016685D01*
X149007403Y-126100282D01*
X149007406Y-126100283D01*
X149165104Y-126146099D01*
X149165110Y-126146100D01*
X149201956Y-126149000D01*
X149667600Y-126149000D01*
X149667600Y-125599000D01*
X148620305Y-125599000D01*
X148620304Y-125599001D01*
X145378765Y-125599001D01*
X145332120Y-125424924D01*
X145239056Y-125225347D01*
X145239054Y-125225344D01*
X145239053Y-125225342D01*
X145146512Y-125093181D01*
X145112749Y-125044962D01*
X144957038Y-124889251D01*
X144776654Y-124762944D01*
X144756300Y-124753453D01*
X144640344Y-124699382D01*
X144587904Y-124653210D01*
X144568752Y-124586017D01*
X144588967Y-124519135D01*
X144640344Y-124474618D01*
X144656362Y-124467148D01*
X144776654Y-124411056D01*
X144957038Y-124284749D01*
X145112749Y-124129038D01*
X145239056Y-123948654D01*
X145332120Y-123749076D01*
X145389115Y-123536371D01*
X145408307Y-123317000D01*
X145406360Y-123294749D01*
X145394033Y-123153844D01*
X145389115Y-123097629D01*
X145332120Y-122884924D01*
X145239056Y-122685347D01*
X145239054Y-122685344D01*
X145239053Y-122685342D01*
X145147901Y-122555164D01*
X145112749Y-122504962D01*
X145001067Y-122393280D01*
X144967582Y-122331957D01*
X144972566Y-122262265D01*
X145014438Y-122206332D01*
X145079902Y-122181915D01*
X145088748Y-122181599D01*
X145302572Y-122181599D01*
X145302586Y-122181598D01*
X145405297Y-122171105D01*
X145571719Y-122115958D01*
X145571724Y-122115956D01*
X145720945Y-122023915D01*
X145844915Y-121899945D01*
X145936956Y-121750724D01*
X145936958Y-121750719D01*
X145992105Y-121584297D01*
X145992106Y-121584290D01*
X146002599Y-121481586D01*
X146002600Y-121481573D01*
X146002600Y-121281600D01*
X143252601Y-121281600D01*
X143252601Y-121481586D01*
X143263094Y-121584297D01*
X143318241Y-121750719D01*
X143318243Y-121750724D01*
X143410284Y-121899945D01*
X143538512Y-122028173D01*
X143571997Y-122089496D01*
X143567013Y-122159188D01*
X143525141Y-122215121D01*
X143514382Y-122222218D01*
X143332967Y-122349247D01*
X143332960Y-122349252D01*
X143177252Y-122504960D01*
X143177247Y-122504967D01*
X143050946Y-122685342D01*
X143050944Y-122685346D01*
X142957881Y-122884920D01*
X142900885Y-123097627D01*
X142900884Y-123097634D01*
X142881693Y-123316997D01*
X142881693Y-123317002D01*
X142900624Y-123533398D01*
X142900885Y-123536371D01*
X142957880Y-123749076D01*
X142957881Y-123749079D01*
X142957882Y-123749081D01*
X143044629Y-123935111D01*
X143050944Y-123948654D01*
X143153611Y-124095277D01*
X143177251Y-124129038D01*
X143210732Y-124162519D01*
X143244217Y-124223842D01*
X143239233Y-124293534D01*
X143197361Y-124349467D01*
X143131897Y-124373884D01*
X143123051Y-124374200D01*
X141401773Y-124374200D01*
X141334734Y-124354515D01*
X141296236Y-124315299D01*
X141253830Y-124246548D01*
X141128452Y-124121170D01*
X140977538Y-124028085D01*
X140935955Y-124014306D01*
X140809227Y-123972313D01*
X140705352Y-123961700D01*
X140705345Y-123961700D01*
X139957843Y-123961700D01*
X139890804Y-123942015D01*
X139870162Y-123925381D01*
X137907304Y-121962523D01*
X137895522Y-121948890D01*
X137880972Y-121929346D01*
X137880971Y-121929345D01*
X137880969Y-121929342D01*
X137880095Y-121928608D01*
X137840487Y-121895372D01*
X137836498Y-121891717D01*
X137830602Y-121885821D01*
X137830601Y-121885820D01*
X137804603Y-121865263D01*
X137745140Y-121815368D01*
X137745135Y-121815365D01*
X137739105Y-121811399D01*
X137739130Y-121811359D01*
X137732569Y-121807179D01*
X137732545Y-121807220D01*
X137726401Y-121803429D01*
X137716272Y-121798706D01*
X137663834Y-121752531D01*
X137644685Y-121685337D01*
X137663689Y-121620352D01*
X137668161Y-121613234D01*
X137670661Y-121609257D01*
X137675669Y-121602383D01*
X137696432Y-121577640D01*
X137718615Y-121533467D01*
X137721517Y-121528320D01*
X137726477Y-121520425D01*
X137746109Y-121489183D01*
X137746110Y-121489178D01*
X137746112Y-121489176D01*
X137750859Y-121475605D01*
X137756857Y-121458463D01*
X137759969Y-121451124D01*
X137776009Y-121419188D01*
X137786617Y-121374422D01*
X137788418Y-121368266D01*
X137802562Y-121327850D01*
X137806588Y-121292112D01*
X137807870Y-121284754D01*
X137813330Y-121261717D01*
X137816900Y-121246656D01*
X137816900Y-121204074D01*
X137817289Y-121197137D01*
X137821699Y-121158000D01*
X137817289Y-121118863D01*
X137816900Y-121111924D01*
X137816900Y-120781600D01*
X143252600Y-120781600D01*
X144377600Y-120781600D01*
X144377600Y-119881600D01*
X144877600Y-119881600D01*
X144877600Y-120781600D01*
X146002599Y-120781600D01*
X146002599Y-120581628D01*
X146002598Y-120581613D01*
X145992105Y-120478902D01*
X145936958Y-120312480D01*
X145936956Y-120312475D01*
X145844915Y-120163254D01*
X145720945Y-120039284D01*
X145571724Y-119947243D01*
X145571719Y-119947241D01*
X145451297Y-119907337D01*
X146559200Y-119907337D01*
X146559201Y-119907353D01*
X146569813Y-120011227D01*
X146607246Y-120124193D01*
X146625585Y-120179538D01*
X146718670Y-120330452D01*
X146844048Y-120455830D01*
X146994962Y-120548915D01*
X147163274Y-120604687D01*
X147267155Y-120615300D01*
X148618244Y-120615299D01*
X148722126Y-120604687D01*
X148890438Y-120548915D01*
X149020603Y-120468627D01*
X149087995Y-120450187D01*
X149150795Y-120468627D01*
X149210187Y-120505260D01*
X149256911Y-120557208D01*
X149268132Y-120626171D01*
X149240289Y-120690253D01*
X149182220Y-120729108D01*
X149167373Y-120732779D01*
X149163770Y-120733437D01*
X149004003Y-120779853D01*
X149003998Y-120779855D01*
X148860796Y-120864544D01*
X148860787Y-120864551D01*
X148743151Y-120982187D01*
X148743144Y-120982196D01*
X148658455Y-121125398D01*
X148658453Y-121125403D01*
X148612038Y-121285164D01*
X148612037Y-121285170D01*
X148609100Y-121322495D01*
X148609100Y-121755505D01*
X148612037Y-121792829D01*
X148612038Y-121792835D01*
X148658453Y-121952596D01*
X148658455Y-121952601D01*
X148743147Y-122095808D01*
X148744849Y-122098002D01*
X148745647Y-122100034D01*
X148747118Y-122102522D01*
X148746716Y-122102759D01*
X148770383Y-122163039D01*
X148756701Y-122231556D01*
X148744849Y-122249998D01*
X148743147Y-122252191D01*
X148658455Y-122395398D01*
X148658453Y-122395403D01*
X148612038Y-122555164D01*
X148612037Y-122555170D01*
X148609100Y-122592495D01*
X148609100Y-123025505D01*
X148612037Y-123062829D01*
X148612038Y-123062835D01*
X148658453Y-123222596D01*
X148658455Y-123222601D01*
X148743147Y-123365808D01*
X148744849Y-123368002D01*
X148745647Y-123370034D01*
X148747118Y-123372522D01*
X148746716Y-123372759D01*
X148770383Y-123433039D01*
X148756701Y-123501556D01*
X148744849Y-123519998D01*
X148743147Y-123522191D01*
X148658455Y-123665398D01*
X148658453Y-123665403D01*
X148612038Y-123825164D01*
X148612037Y-123825170D01*
X148609100Y-123862495D01*
X148609100Y-124295505D01*
X148612037Y-124332829D01*
X148612038Y-124332835D01*
X148658453Y-124492596D01*
X148658455Y-124492601D01*
X148743144Y-124635803D01*
X148747930Y-124641973D01*
X148746016Y-124643457D01*
X148773751Y-124694250D01*
X148768767Y-124763942D01*
X148753852Y-124790708D01*
X148753888Y-124790729D01*
X148753082Y-124792091D01*
X148750569Y-124796602D01*
X148749919Y-124797439D01*
X148666318Y-124938801D01*
X148620499Y-125096513D01*
X148620304Y-125098998D01*
X148620305Y-125099000D01*
X150043600Y-125099000D01*
X150110639Y-125118685D01*
X150156394Y-125171489D01*
X150167600Y-125223000D01*
X150167600Y-126149000D01*
X150535099Y-126149000D01*
X150602138Y-126168685D01*
X150647893Y-126221489D01*
X150659099Y-126273000D01*
X150659099Y-129359106D01*
X150639414Y-129426145D01*
X150586610Y-129471900D01*
X150535099Y-129483106D01*
X150408345Y-129483106D01*
X150347797Y-129489617D01*
X150347795Y-129489617D01*
X150210795Y-129540717D01*
X150093739Y-129628345D01*
X150006111Y-129745401D01*
X149955011Y-129882401D01*
X149955011Y-129882403D01*
X149948500Y-129942951D01*
X149948500Y-131640260D01*
X149955011Y-131700808D01*
X149955011Y-131700810D01*
X149964832Y-131727139D01*
X150006111Y-131837810D01*
X150093739Y-131954867D01*
X150210796Y-132042495D01*
X150347799Y-132093595D01*
X150375050Y-132096524D01*
X150408345Y-132100105D01*
X150408360Y-132100105D01*
X150408362Y-132100106D01*
X150408364Y-132100106D01*
X150411669Y-132100283D01*
X150411659Y-132100461D01*
X150411665Y-132100462D01*
X150411653Y-132100565D01*
X150411591Y-132101734D01*
X150473084Y-132119791D01*
X150518839Y-132172595D01*
X150524518Y-132205571D01*
X151212600Y-132893652D01*
X151131852Y-132906441D01*
X151018955Y-132963965D01*
X150929359Y-133053561D01*
X150871835Y-133166458D01*
X150859046Y-133247205D01*
X150177973Y-132566132D01*
X150177972Y-132566133D01*
X150126868Y-132639119D01*
X150030734Y-132845279D01*
X150030730Y-132845288D01*
X149971860Y-133064995D01*
X149971858Y-133065006D01*
X149952034Y-133291603D01*
X149952034Y-133291608D01*
X149971858Y-133518205D01*
X149971860Y-133518216D01*
X150030730Y-133737923D01*
X150030734Y-133737932D01*
X150126865Y-133944087D01*
X150126866Y-133944089D01*
X150177973Y-134017077D01*
X150177974Y-134017078D01*
X150859046Y-133336005D01*
X150871835Y-133416754D01*
X150929359Y-133529651D01*
X151018955Y-133619247D01*
X151131852Y-133676771D01*
X151212599Y-133689559D01*
X150531526Y-134370631D01*
X150531526Y-134370632D01*
X150604512Y-134421737D01*
X150604516Y-134421739D01*
X150810673Y-134517871D01*
X150810682Y-134517875D01*
X151030389Y-134576745D01*
X151030400Y-134576747D01*
X151256998Y-134596572D01*
X151257002Y-134596572D01*
X151483599Y-134576747D01*
X151483610Y-134576745D01*
X151703317Y-134517875D01*
X151703331Y-134517870D01*
X151909478Y-134421742D01*
X151982472Y-134370631D01*
X151301401Y-133689559D01*
X151382148Y-133676771D01*
X151495045Y-133619247D01*
X151584641Y-133529651D01*
X151642165Y-133416754D01*
X151654953Y-133336006D01*
X152336025Y-134017078D01*
X152387136Y-133944084D01*
X152483264Y-133737937D01*
X152483269Y-133737923D01*
X152542139Y-133518216D01*
X152542141Y-133518205D01*
X152561966Y-133291608D01*
X152561966Y-133291603D01*
X152542141Y-133065006D01*
X152542139Y-133064995D01*
X152483269Y-132845288D01*
X152483265Y-132845279D01*
X152387133Y-132639122D01*
X152387131Y-132639118D01*
X152336026Y-132566132D01*
X152336025Y-132566132D01*
X151654953Y-133247204D01*
X151642165Y-133166458D01*
X151584641Y-133053561D01*
X151495045Y-132963965D01*
X151382148Y-132906441D01*
X151301400Y-132893652D01*
X151990534Y-132204517D01*
X151998192Y-132166415D01*
X152046807Y-132116231D01*
X152102399Y-132101570D01*
X152102346Y-132100565D01*
X152102335Y-132100462D01*
X152102340Y-132100461D01*
X152102331Y-132100283D01*
X152105635Y-132100106D01*
X152105638Y-132100106D01*
X152105640Y-132100105D01*
X152105654Y-132100105D01*
X152132692Y-132097197D01*
X152166201Y-132093595D01*
X152303204Y-132042495D01*
X152420261Y-131954867D01*
X152507889Y-131837810D01*
X152558989Y-131700807D01*
X152562591Y-131667298D01*
X152565499Y-131640260D01*
X152565500Y-131640243D01*
X152565500Y-131231004D01*
X157400793Y-131231004D01*
X157419592Y-131481866D01*
X157475570Y-131727122D01*
X157475573Y-131727134D01*
X157567483Y-131961316D01*
X157693269Y-132179184D01*
X157850122Y-132375872D01*
X158034538Y-132546984D01*
X158242397Y-132688700D01*
X158469055Y-132797853D01*
X158709451Y-132872005D01*
X158709452Y-132872005D01*
X158709455Y-132872006D01*
X158958206Y-132909499D01*
X158958211Y-132909499D01*
X158958214Y-132909500D01*
X158958215Y-132909500D01*
X159209785Y-132909500D01*
X159209786Y-132909500D01*
X159209793Y-132909499D01*
X159458544Y-132872006D01*
X159458545Y-132872005D01*
X159458549Y-132872005D01*
X159698945Y-132797853D01*
X159925604Y-132688700D01*
X160133462Y-132546984D01*
X160317878Y-132375872D01*
X160474731Y-132179184D01*
X160600517Y-131961316D01*
X160692427Y-131727134D01*
X160748407Y-131481869D01*
X160767207Y-131231000D01*
X160764209Y-131191000D01*
X160748407Y-130980133D01*
X160740718Y-130946445D01*
X160692427Y-130734866D01*
X160600517Y-130500684D01*
X160474731Y-130282816D01*
X160317878Y-130086128D01*
X160317273Y-130085567D01*
X160264787Y-130036867D01*
X160133462Y-129915016D01*
X160073134Y-129873885D01*
X159925607Y-129773302D01*
X159925596Y-129773295D01*
X159698947Y-129664148D01*
X159698949Y-129664148D01*
X159458550Y-129589995D01*
X159458544Y-129589993D01*
X159209793Y-129552500D01*
X159209786Y-129552500D01*
X158958214Y-129552500D01*
X158958206Y-129552500D01*
X158709455Y-129589993D01*
X158709449Y-129589995D01*
X158469054Y-129664147D01*
X158242401Y-129773297D01*
X158034537Y-129915016D01*
X157850123Y-130086126D01*
X157850122Y-130086128D01*
X157693269Y-130282816D01*
X157567483Y-130500683D01*
X157475575Y-130734860D01*
X157475570Y-130734877D01*
X157419592Y-130980133D01*
X157400793Y-131230995D01*
X157400793Y-131231004D01*
X152565500Y-131231004D01*
X152565500Y-129942968D01*
X152565499Y-129942951D01*
X152562157Y-129911876D01*
X152558989Y-129882405D01*
X152555811Y-129873885D01*
X152531051Y-129807501D01*
X152507889Y-129745402D01*
X152420261Y-129628345D01*
X152303204Y-129540717D01*
X152303201Y-129540715D01*
X152256764Y-129523395D01*
X152200831Y-129481523D01*
X152176415Y-129416059D01*
X152176099Y-129407214D01*
X152176099Y-124843293D01*
X152177408Y-124825322D01*
X152180940Y-124801211D01*
X152176334Y-124748573D01*
X152176099Y-124743171D01*
X152176099Y-124734824D01*
X152176098Y-124734813D01*
X152172251Y-124701904D01*
X152167008Y-124641973D01*
X152165486Y-124624573D01*
X152165484Y-124624568D01*
X152164026Y-124617504D01*
X152164074Y-124617493D01*
X152162393Y-124609909D01*
X152162345Y-124609921D01*
X152160678Y-124602893D01*
X152160678Y-124602887D01*
X152134129Y-124529944D01*
X152130547Y-124519135D01*
X152109713Y-124456262D01*
X152106659Y-124449712D01*
X152106703Y-124449691D01*
X152103319Y-124442700D01*
X152103275Y-124442723D01*
X152100036Y-124436275D01*
X152100034Y-124436268D01*
X152057366Y-124371395D01*
X152016628Y-124305348D01*
X152016627Y-124305347D01*
X152016626Y-124305345D01*
X152012150Y-124299685D01*
X152012188Y-124299654D01*
X152007280Y-124293629D01*
X152007244Y-124293660D01*
X152002604Y-124288131D01*
X152002602Y-124288129D01*
X152002600Y-124288126D01*
X151971490Y-124258775D01*
X151946116Y-124234835D01*
X151299403Y-123588123D01*
X151287621Y-123574490D01*
X151273071Y-123554946D01*
X151273070Y-123554945D01*
X151273068Y-123554942D01*
X151269624Y-123552052D01*
X151232586Y-123520972D01*
X151228597Y-123517317D01*
X151222701Y-123511421D01*
X151222700Y-123511420D01*
X151196702Y-123490863D01*
X151196701Y-123490862D01*
X151157889Y-123458295D01*
X151119186Y-123400123D01*
X151118077Y-123330263D01*
X151130862Y-123300184D01*
X151176745Y-123222601D01*
X151222982Y-123063450D01*
X151223161Y-123062835D01*
X151223162Y-123062829D01*
X151226100Y-123025505D01*
X151226100Y-122592495D01*
X151223162Y-122555170D01*
X151223161Y-122555164D01*
X151176746Y-122395403D01*
X151176745Y-122395399D01*
X151139225Y-122331957D01*
X151092056Y-122252197D01*
X151090355Y-122250005D01*
X151089556Y-122247970D01*
X151088082Y-122245478D01*
X151088483Y-122245240D01*
X151064817Y-122184970D01*
X151078494Y-122116452D01*
X151090355Y-122097995D01*
X151092049Y-122095810D01*
X151092053Y-122095807D01*
X151176745Y-121952601D01*
X151216614Y-121815370D01*
X151223161Y-121792835D01*
X151223162Y-121792829D01*
X151226100Y-121755505D01*
X151226100Y-121322495D01*
X151223162Y-121285170D01*
X151223161Y-121285164D01*
X151186216Y-121157998D01*
X151176745Y-121125399D01*
X151092053Y-120982193D01*
X151092051Y-120982191D01*
X151092048Y-120982187D01*
X151023519Y-120913658D01*
X150990034Y-120852335D01*
X150987200Y-120825977D01*
X150987200Y-120701162D01*
X151006885Y-120634123D01*
X151059689Y-120588368D01*
X151072190Y-120583458D01*
X151176438Y-120548915D01*
X151327352Y-120455830D01*
X151452730Y-120330452D01*
X151545815Y-120179538D01*
X151601587Y-120011226D01*
X151612200Y-119907345D01*
X151612199Y-119426800D01*
X153142501Y-119426800D01*
X153142501Y-119876786D01*
X153152994Y-119979497D01*
X153208141Y-120145919D01*
X153208143Y-120145924D01*
X153300184Y-120295145D01*
X153424154Y-120419115D01*
X153573375Y-120511156D01*
X153573380Y-120511158D01*
X153739802Y-120566305D01*
X153739809Y-120566306D01*
X153842519Y-120576799D01*
X154054999Y-120576799D01*
X154055000Y-120576798D01*
X154055000Y-119426800D01*
X154555000Y-119426800D01*
X154555000Y-120576799D01*
X154767472Y-120576799D01*
X154767486Y-120576798D01*
X154870197Y-120566305D01*
X155036619Y-120511158D01*
X155036624Y-120511156D01*
X155185845Y-120419115D01*
X155309815Y-120295145D01*
X155401856Y-120145924D01*
X155401858Y-120145919D01*
X155457005Y-119979497D01*
X155457006Y-119979490D01*
X155467499Y-119876786D01*
X155467500Y-119876771D01*
X155467500Y-119426800D01*
X154555000Y-119426800D01*
X154055000Y-119426800D01*
X153142501Y-119426800D01*
X151612199Y-119426800D01*
X151612199Y-119006256D01*
X151604082Y-118926800D01*
X153142500Y-118926800D01*
X154055000Y-118926800D01*
X154055000Y-117776800D01*
X154555000Y-117776800D01*
X154555000Y-118926800D01*
X155467499Y-118926800D01*
X155467499Y-118476828D01*
X155467498Y-118476813D01*
X155457005Y-118374102D01*
X155401858Y-118207680D01*
X155401856Y-118207675D01*
X155309815Y-118058454D01*
X155185845Y-117934484D01*
X155036624Y-117842443D01*
X155036619Y-117842441D01*
X154870197Y-117787294D01*
X154870190Y-117787293D01*
X154767486Y-117776800D01*
X154555000Y-117776800D01*
X154055000Y-117776800D01*
X153842529Y-117776800D01*
X153842512Y-117776801D01*
X153739802Y-117787294D01*
X153573380Y-117842441D01*
X153573375Y-117842443D01*
X153424154Y-117934484D01*
X153300184Y-118058454D01*
X153208143Y-118207675D01*
X153208141Y-118207680D01*
X153152994Y-118374102D01*
X153152993Y-118374109D01*
X153142500Y-118476813D01*
X153142500Y-118926800D01*
X151604082Y-118926800D01*
X151601587Y-118902374D01*
X151545815Y-118734062D01*
X151452730Y-118583148D01*
X151327352Y-118457770D01*
X151204758Y-118382153D01*
X151176440Y-118364686D01*
X151176435Y-118364684D01*
X151008127Y-118308913D01*
X150904245Y-118298300D01*
X149553162Y-118298300D01*
X149553146Y-118298301D01*
X149449272Y-118308913D01*
X149280964Y-118364684D01*
X149280959Y-118364686D01*
X149150797Y-118444972D01*
X149083404Y-118463412D01*
X149020603Y-118444972D01*
X148890440Y-118364686D01*
X148890435Y-118364684D01*
X148722127Y-118308913D01*
X148618245Y-118298300D01*
X147267162Y-118298300D01*
X147267146Y-118298301D01*
X147163272Y-118308913D01*
X146994964Y-118364684D01*
X146994959Y-118364686D01*
X146844046Y-118457771D01*
X146718671Y-118583146D01*
X146625586Y-118734059D01*
X146625584Y-118734064D01*
X146569813Y-118902372D01*
X146559200Y-119006247D01*
X146559200Y-119907337D01*
X145451297Y-119907337D01*
X145405297Y-119892094D01*
X145405290Y-119892093D01*
X145302586Y-119881600D01*
X144877600Y-119881600D01*
X144377600Y-119881600D01*
X143952628Y-119881600D01*
X143952612Y-119881601D01*
X143849902Y-119892094D01*
X143683480Y-119947241D01*
X143683475Y-119947243D01*
X143534254Y-120039284D01*
X143410284Y-120163254D01*
X143318243Y-120312475D01*
X143318241Y-120312480D01*
X143263094Y-120478902D01*
X143263093Y-120478909D01*
X143252600Y-120581613D01*
X143252600Y-120781600D01*
X137816900Y-120781600D01*
X137816900Y-119946704D01*
X137836585Y-119879665D01*
X137889389Y-119833910D01*
X137930088Y-119823177D01*
X138115971Y-119806915D01*
X138328676Y-119749920D01*
X138528254Y-119656856D01*
X138708638Y-119530549D01*
X138864349Y-119374838D01*
X138952527Y-119248907D01*
X139007102Y-119205285D01*
X139076601Y-119198092D01*
X139138955Y-119229614D01*
X139174369Y-119289844D01*
X139178100Y-119320033D01*
X139178100Y-119361454D01*
X139184611Y-119422002D01*
X139184611Y-119422004D01*
X139233448Y-119552938D01*
X139235711Y-119559004D01*
X139323339Y-119676061D01*
X139440396Y-119763689D01*
X139577399Y-119814789D01*
X139604650Y-119817718D01*
X139637945Y-119821299D01*
X139637962Y-119821300D01*
X141235238Y-119821300D01*
X141235254Y-119821299D01*
X141262292Y-119818391D01*
X141295801Y-119814789D01*
X141432804Y-119763689D01*
X141549861Y-119676061D01*
X141637489Y-119559004D01*
X141688589Y-119422001D01*
X141692191Y-119388492D01*
X141695099Y-119361454D01*
X141695100Y-119361437D01*
X141695100Y-118382137D01*
X143244100Y-118382137D01*
X143244101Y-118382153D01*
X143254713Y-118486027D01*
X143310484Y-118654335D01*
X143310486Y-118654340D01*
X143345742Y-118711498D01*
X143403570Y-118805252D01*
X143528948Y-118930630D01*
X143679862Y-119023715D01*
X143848174Y-119079487D01*
X143952055Y-119090100D01*
X145303144Y-119090099D01*
X145407026Y-119079487D01*
X145575338Y-119023715D01*
X145726252Y-118930630D01*
X145851630Y-118805252D01*
X145944715Y-118654338D01*
X146000487Y-118486026D01*
X146011100Y-118382145D01*
X146011099Y-117481056D01*
X146000487Y-117377174D01*
X145944715Y-117208862D01*
X145851630Y-117057948D01*
X145726252Y-116932570D01*
X145575338Y-116839485D01*
X145575335Y-116839484D01*
X145407027Y-116783713D01*
X145303145Y-116773100D01*
X143952062Y-116773100D01*
X143952046Y-116773101D01*
X143848172Y-116783713D01*
X143679864Y-116839484D01*
X143679859Y-116839486D01*
X143528946Y-116932571D01*
X143403571Y-117057946D01*
X143310486Y-117208859D01*
X143310484Y-117208864D01*
X143254713Y-117377172D01*
X143244100Y-117481047D01*
X143244100Y-118382137D01*
X141695100Y-118382137D01*
X141695100Y-117764162D01*
X141695099Y-117764145D01*
X141691321Y-117729013D01*
X141688589Y-117703599D01*
X141637489Y-117566596D01*
X141549861Y-117449539D01*
X141432804Y-117361911D01*
X141295803Y-117310811D01*
X141235254Y-117304300D01*
X141235238Y-117304300D01*
X139637962Y-117304300D01*
X139637945Y-117304300D01*
X139577397Y-117310811D01*
X139577395Y-117310811D01*
X139440395Y-117361911D01*
X139323339Y-117449539D01*
X139235711Y-117566595D01*
X139184611Y-117703595D01*
X139184611Y-117703597D01*
X139178100Y-117764145D01*
X139178100Y-117805566D01*
X139158415Y-117872605D01*
X139105611Y-117918360D01*
X139036453Y-117928304D01*
X138972897Y-117899279D01*
X138952525Y-117876690D01*
X138923113Y-117834686D01*
X138864349Y-117750762D01*
X138708638Y-117595051D01*
X138708634Y-117595048D01*
X138704488Y-117591569D01*
X138705601Y-117590241D01*
X138666845Y-117541769D01*
X138659642Y-117472272D01*
X138691156Y-117409912D01*
X138693876Y-117407104D01*
X139441762Y-116659217D01*
X139503085Y-116625733D01*
X139529443Y-116622899D01*
X140276937Y-116622899D01*
X140276944Y-116622899D01*
X140380826Y-116612287D01*
X140549138Y-116556515D01*
X140700052Y-116463430D01*
X140825430Y-116338052D01*
X140918515Y-116187138D01*
X140974287Y-116018826D01*
X140984900Y-115914945D01*
X140984900Y-115914937D01*
X141767900Y-115914937D01*
X141767901Y-115914953D01*
X141777577Y-116009662D01*
X141778513Y-116018826D01*
X141834285Y-116187138D01*
X141927370Y-116338052D01*
X142052748Y-116463430D01*
X142203662Y-116556515D01*
X142371974Y-116612287D01*
X142475855Y-116622900D01*
X143401944Y-116622899D01*
X143505826Y-116612287D01*
X143674138Y-116556515D01*
X143825052Y-116463430D01*
X143950430Y-116338052D01*
X144043515Y-116187138D01*
X144099287Y-116018826D01*
X144109900Y-115914945D01*
X144109899Y-114513856D01*
X144099287Y-114409974D01*
X144043515Y-114241662D01*
X143950430Y-114090748D01*
X143825052Y-113965370D01*
X143674138Y-113872285D01*
X143674135Y-113872284D01*
X143505827Y-113816513D01*
X143401946Y-113805900D01*
X142475862Y-113805900D01*
X142475846Y-113805901D01*
X142371972Y-113816513D01*
X142203664Y-113872284D01*
X142203659Y-113872286D01*
X142052746Y-113965371D01*
X141927371Y-114090746D01*
X141834286Y-114241659D01*
X141834284Y-114241664D01*
X141778513Y-114409972D01*
X141767900Y-114513847D01*
X141767900Y-115914937D01*
X140984900Y-115914937D01*
X140984899Y-114513856D01*
X140974287Y-114409974D01*
X140918515Y-114241662D01*
X140825430Y-114090748D01*
X140700052Y-113965370D01*
X140549138Y-113872285D01*
X140549135Y-113872284D01*
X140380827Y-113816513D01*
X140276946Y-113805900D01*
X139350862Y-113805900D01*
X139350846Y-113805901D01*
X139246972Y-113816513D01*
X139078664Y-113872284D01*
X139078659Y-113872286D01*
X138927746Y-113965371D01*
X138802371Y-114090746D01*
X138709286Y-114241659D01*
X138709284Y-114241664D01*
X138653513Y-114409972D01*
X138642900Y-114513847D01*
X138642900Y-115261356D01*
X138623215Y-115328395D01*
X138606581Y-115349037D01*
X137405722Y-116549895D01*
X137392095Y-116561673D01*
X137372541Y-116576231D01*
X137338577Y-116616706D01*
X137334930Y-116620687D01*
X137329018Y-116626600D01*
X137308463Y-116652596D01*
X137258567Y-116712060D01*
X137254601Y-116718091D01*
X137254563Y-116718066D01*
X137250382Y-116724628D01*
X137250421Y-116724652D01*
X137246632Y-116730794D01*
X137213820Y-116801159D01*
X137178991Y-116870510D01*
X137176523Y-116877293D01*
X137176478Y-116877276D01*
X137173922Y-116884632D01*
X137173966Y-116884647D01*
X137171696Y-116891495D01*
X137167622Y-116911226D01*
X137155992Y-116967550D01*
X137143625Y-117019729D01*
X137138098Y-117043051D01*
X137137261Y-117050219D01*
X137137213Y-117050213D01*
X137136423Y-117057944D01*
X137136470Y-117057949D01*
X137135840Y-117065138D01*
X137138100Y-117142779D01*
X137138100Y-117493012D01*
X137118415Y-117560051D01*
X137088439Y-117591244D01*
X137088712Y-117591569D01*
X137085693Y-117594102D01*
X137085237Y-117594577D01*
X137084574Y-117595040D01*
X137084558Y-117595054D01*
X136928852Y-117750760D01*
X136928847Y-117750767D01*
X136802546Y-117931142D01*
X136802544Y-117931146D01*
X136738982Y-118067457D01*
X136692810Y-118119896D01*
X136625616Y-118139048D01*
X136558735Y-118118832D01*
X136514218Y-118067457D01*
X136452212Y-117934484D01*
X136450656Y-117931147D01*
X136450654Y-117931144D01*
X136450653Y-117931142D01*
X136348285Y-117784946D01*
X136324349Y-117750762D01*
X136168638Y-117595051D01*
X135988254Y-117468744D01*
X135988250Y-117468742D01*
X135788681Y-117375682D01*
X135788679Y-117375681D01*
X135788676Y-117375680D01*
X135637377Y-117335139D01*
X135575972Y-117318685D01*
X135575965Y-117318684D01*
X135356602Y-117299493D01*
X135356598Y-117299493D01*
X135137234Y-117318684D01*
X135137227Y-117318685D01*
X134924520Y-117375681D01*
X134724946Y-117468744D01*
X134724942Y-117468746D01*
X134544567Y-117595047D01*
X134544560Y-117595052D01*
X134388852Y-117750760D01*
X134388847Y-117750767D01*
X134262546Y-117931142D01*
X134262544Y-117931146D01*
X134169481Y-118130720D01*
X134112485Y-118343427D01*
X134112484Y-118343434D01*
X134093293Y-118562797D01*
X134093293Y-118562802D01*
X134112484Y-118782165D01*
X134112485Y-118782172D01*
X134118670Y-118805253D01*
X134169480Y-118994876D01*
X134169481Y-118994879D01*
X134169482Y-118994881D01*
X134250524Y-119168677D01*
X134262544Y-119194454D01*
X134388851Y-119374838D01*
X134544562Y-119530549D01*
X134724946Y-119656856D01*
X134924524Y-119749920D01*
X135137229Y-119806915D01*
X135293922Y-119820623D01*
X135356598Y-119826107D01*
X135356600Y-119826107D01*
X135356602Y-119826107D01*
X135411557Y-119821299D01*
X135575971Y-119806915D01*
X135788676Y-119749920D01*
X135988254Y-119656856D01*
X136104776Y-119575266D01*
X136170982Y-119552938D01*
X136238749Y-119569948D01*
X136286563Y-119620895D01*
X136299900Y-119676840D01*
X136299900Y-120945900D01*
X136280215Y-121012939D01*
X136227411Y-121058694D01*
X136175900Y-121069900D01*
X135516262Y-121069900D01*
X135516246Y-121069901D01*
X135412372Y-121080513D01*
X135244064Y-121136284D01*
X135244059Y-121136286D01*
X135093146Y-121229371D01*
X134967771Y-121354746D01*
X134874686Y-121505659D01*
X134874684Y-121505664D01*
X134818913Y-121673972D01*
X134808300Y-121777847D01*
X134808300Y-122054856D01*
X134788615Y-122121895D01*
X134771981Y-122142537D01*
X134236980Y-122677538D01*
X134175657Y-122711023D01*
X134105965Y-122706039D01*
X134050032Y-122664167D01*
X134025615Y-122598703D01*
X134025299Y-122589857D01*
X134025299Y-121777862D01*
X134025298Y-121777846D01*
X134020739Y-121733217D01*
X134014687Y-121673974D01*
X133958915Y-121505662D01*
X133865830Y-121354748D01*
X133740452Y-121229370D01*
X133646698Y-121171542D01*
X133589540Y-121136286D01*
X133589535Y-121136284D01*
X133421227Y-121080513D01*
X133317346Y-121069900D01*
X132416262Y-121069900D01*
X132416246Y-121069901D01*
X132312372Y-121080513D01*
X132144064Y-121136284D01*
X132144059Y-121136286D01*
X131993146Y-121229371D01*
X131867771Y-121354746D01*
X131774686Y-121505659D01*
X131774684Y-121505664D01*
X131718913Y-121673972D01*
X131708300Y-121777847D01*
X131708300Y-123128937D01*
X131708301Y-123128953D01*
X131718913Y-123232827D01*
X131774684Y-123401135D01*
X131774686Y-123401140D01*
X131789047Y-123424423D01*
X131858098Y-123536372D01*
X131867771Y-123552053D01*
X131993147Y-123677429D01*
X131993153Y-123677434D01*
X131999524Y-123681364D01*
X132046247Y-123733313D01*
X132057467Y-123802276D01*
X132029621Y-123866357D01*
X131999524Y-123892436D01*
X131993153Y-123896365D01*
X131993147Y-123896370D01*
X131867771Y-124021746D01*
X131774686Y-124172659D01*
X131774684Y-124172664D01*
X131718913Y-124340972D01*
X131708300Y-124444847D01*
X131708300Y-125795937D01*
X129844500Y-125795937D01*
X129844500Y-109601000D01*
X132421681Y-109601000D01*
X132440927Y-109845554D01*
X132498193Y-110084087D01*
X132592072Y-110310730D01*
X132706279Y-110497102D01*
X132724523Y-110564548D01*
X132703406Y-110631150D01*
X132674863Y-110661157D01*
X132577809Y-110733812D01*
X132491649Y-110848906D01*
X132491645Y-110848913D01*
X132441403Y-110983620D01*
X132441401Y-110983627D01*
X132435000Y-111043155D01*
X132435000Y-111891000D01*
X133490148Y-111891000D01*
X133441441Y-112028047D01*
X133431123Y-112178886D01*
X133461884Y-112326915D01*
X133495090Y-112391000D01*
X132435000Y-112391000D01*
X132435000Y-113238844D01*
X132441401Y-113298372D01*
X132441403Y-113298379D01*
X132491645Y-113433086D01*
X132491649Y-113433093D01*
X132577809Y-113548187D01*
X132577812Y-113548190D01*
X132692906Y-113634350D01*
X132692913Y-113634354D01*
X132827620Y-113684596D01*
X132827627Y-113684598D01*
X132887155Y-113690999D01*
X132887172Y-113691000D01*
X133735000Y-113691000D01*
X133735000Y-112632683D01*
X133763819Y-112650209D01*
X133909404Y-112691000D01*
X134022622Y-112691000D01*
X134134783Y-112675584D01*
X134235000Y-112632053D01*
X134235000Y-113691000D01*
X135082828Y-113691000D01*
X135082844Y-113690999D01*
X135142372Y-113684598D01*
X135142379Y-113684596D01*
X135277086Y-113634354D01*
X135277093Y-113634350D01*
X135392187Y-113548190D01*
X135392190Y-113548187D01*
X135478350Y-113433093D01*
X135478354Y-113433086D01*
X135528596Y-113298379D01*
X135528598Y-113298372D01*
X135534999Y-113238844D01*
X135535000Y-113238827D01*
X135535000Y-112391000D01*
X134479852Y-112391000D01*
X134528559Y-112253953D01*
X134538877Y-112103114D01*
X134508116Y-111955085D01*
X134474910Y-111891000D01*
X135535000Y-111891000D01*
X135535000Y-111043172D01*
X135534999Y-111043155D01*
X135528598Y-110983627D01*
X135528596Y-110983620D01*
X135478354Y-110848913D01*
X135478350Y-110848906D01*
X135392190Y-110733812D01*
X135392187Y-110733809D01*
X135295137Y-110661157D01*
X135253266Y-110605223D01*
X135248282Y-110535532D01*
X135263720Y-110497102D01*
X135377927Y-110310732D01*
X135471805Y-110084092D01*
X135529072Y-109845557D01*
X135548319Y-109601000D01*
X135542322Y-109524801D01*
X140052102Y-109524801D01*
X140072056Y-109752881D01*
X140072057Y-109752889D01*
X140131314Y-109974038D01*
X140131318Y-109974049D01*
X140225413Y-110175836D01*
X140228077Y-110181549D01*
X140359402Y-110369100D01*
X140521300Y-110530998D01*
X140708851Y-110662323D01*
X140803446Y-110706433D01*
X140916350Y-110759081D01*
X140916352Y-110759081D01*
X140916357Y-110759084D01*
X141137513Y-110818343D01*
X141278046Y-110830638D01*
X141365598Y-110838298D01*
X141365600Y-110838298D01*
X141365602Y-110838298D01*
X141422727Y-110833300D01*
X141593687Y-110818343D01*
X141814843Y-110759084D01*
X142022349Y-110662323D01*
X142209900Y-110530998D01*
X142357440Y-110383457D01*
X142418760Y-110349975D01*
X142488451Y-110354959D01*
X142544385Y-110396830D01*
X142561299Y-110427806D01*
X142610049Y-110558504D01*
X142614711Y-110571004D01*
X142702339Y-110688061D01*
X142819396Y-110775689D01*
X142896164Y-110804322D01*
X142956395Y-110826788D01*
X142956398Y-110826789D01*
X142996355Y-110831085D01*
X143060906Y-110857823D01*
X143100755Y-110915215D01*
X143107100Y-110954374D01*
X143107100Y-112215406D01*
X143105791Y-112233376D01*
X143102258Y-112257491D01*
X143106864Y-112310120D01*
X143107100Y-112315527D01*
X143107100Y-112323878D01*
X143110947Y-112356796D01*
X143117712Y-112434127D01*
X143119172Y-112441194D01*
X143119126Y-112441203D01*
X143120809Y-112448794D01*
X143120854Y-112448784D01*
X143122519Y-112455810D01*
X143145859Y-112519934D01*
X143149073Y-112528765D01*
X143163284Y-112571652D01*
X143173486Y-112602437D01*
X143176540Y-112608986D01*
X143176496Y-112609006D01*
X143179884Y-112616004D01*
X143179927Y-112615983D01*
X143183168Y-112622437D01*
X143213097Y-112667942D01*
X143225833Y-112687305D01*
X143266570Y-112753351D01*
X143266572Y-112753353D01*
X143271051Y-112759018D01*
X143271013Y-112759047D01*
X143275920Y-112765072D01*
X143275957Y-112765042D01*
X143280602Y-112770578D01*
X143337082Y-112823863D01*
X146522881Y-116009662D01*
X146556366Y-116070985D01*
X146559200Y-116097343D01*
X146559200Y-116807337D01*
X146559201Y-116807353D01*
X146569813Y-116911227D01*
X146613492Y-117043044D01*
X146625585Y-117079538D01*
X146718670Y-117230452D01*
X146844048Y-117355830D01*
X146994962Y-117448915D01*
X147163274Y-117504687D01*
X147267155Y-117515300D01*
X148618244Y-117515299D01*
X148722126Y-117504687D01*
X148890438Y-117448915D01*
X149020603Y-117368627D01*
X149087995Y-117350187D01*
X149150796Y-117368627D01*
X149162233Y-117375682D01*
X149280953Y-117448910D01*
X149280956Y-117448911D01*
X149280962Y-117448915D01*
X149449274Y-117504687D01*
X149553155Y-117515300D01*
X150904244Y-117515299D01*
X151008126Y-117504687D01*
X151176438Y-117448915D01*
X151327352Y-117355830D01*
X151452730Y-117230452D01*
X151487426Y-117174200D01*
X151539372Y-117127479D01*
X151592963Y-117115300D01*
X156303835Y-117115300D01*
X156370874Y-117134985D01*
X156391516Y-117151619D01*
X156837895Y-117597998D01*
X156871380Y-117659321D01*
X156866396Y-117729013D01*
X156824524Y-117784946D01*
X156789219Y-117803385D01*
X156694762Y-117834685D01*
X156694759Y-117834686D01*
X156543846Y-117927771D01*
X156418471Y-118053146D01*
X156325386Y-118204059D01*
X156325384Y-118204064D01*
X156269613Y-118372372D01*
X156259000Y-118476247D01*
X156259000Y-119877337D01*
X156259001Y-119877353D01*
X156269436Y-119979490D01*
X156269613Y-119981226D01*
X156325385Y-120149538D01*
X156418470Y-120300452D01*
X156543848Y-120425830D01*
X156612598Y-120468235D01*
X156659321Y-120520182D01*
X156671500Y-120573773D01*
X156671500Y-120606500D01*
X156651815Y-120673539D01*
X156599011Y-120719294D01*
X156547500Y-120730500D01*
X156401095Y-120730500D01*
X156363770Y-120733437D01*
X156363764Y-120733438D01*
X156204003Y-120779853D01*
X156203998Y-120779855D01*
X156060796Y-120864544D01*
X156060787Y-120864551D01*
X155943151Y-120982187D01*
X155943144Y-120982196D01*
X155858455Y-121125398D01*
X155858453Y-121125403D01*
X155812038Y-121285164D01*
X155812037Y-121285170D01*
X155809100Y-121322495D01*
X155809100Y-121755505D01*
X155812037Y-121792829D01*
X155812038Y-121792835D01*
X155858453Y-121952596D01*
X155858455Y-121952602D01*
X155895753Y-122015669D01*
X155912936Y-122083394D01*
X155890776Y-122149656D01*
X155854121Y-122184327D01*
X155812549Y-122209970D01*
X155806883Y-122214450D01*
X155806853Y-122214413D01*
X155800827Y-122219322D01*
X155800857Y-122219357D01*
X155795332Y-122223993D01*
X155742036Y-122280482D01*
X155376722Y-122645795D01*
X155363095Y-122657573D01*
X155343541Y-122672131D01*
X155309577Y-122712606D01*
X155305930Y-122716587D01*
X155300018Y-122722500D01*
X155279463Y-122748496D01*
X155229567Y-122807960D01*
X155225601Y-122813991D01*
X155225563Y-122813966D01*
X155221382Y-122820528D01*
X155221421Y-122820552D01*
X155217632Y-122826694D01*
X155184820Y-122897059D01*
X155149991Y-122966410D01*
X155147523Y-122973193D01*
X155147478Y-122973176D01*
X155144922Y-122980532D01*
X155144966Y-122980547D01*
X155142696Y-122987395D01*
X155134844Y-123025422D01*
X155126992Y-123063450D01*
X155114625Y-123115629D01*
X155109098Y-123138951D01*
X155108261Y-123146119D01*
X155108213Y-123146113D01*
X155107423Y-123153844D01*
X155107470Y-123153849D01*
X155106840Y-123161038D01*
X155109100Y-123238679D01*
X155109100Y-125687390D01*
X155107791Y-125705360D01*
X155104258Y-125729475D01*
X155108864Y-125782104D01*
X155109100Y-125787511D01*
X155109100Y-125795864D01*
X155111664Y-125817807D01*
X155112947Y-125828780D01*
X155119712Y-125906111D01*
X155121172Y-125913178D01*
X155121126Y-125913187D01*
X155122809Y-125920778D01*
X155122854Y-125920768D01*
X155124519Y-125927794D01*
X155151073Y-126000749D01*
X155173404Y-126068140D01*
X155175486Y-126074421D01*
X155178540Y-126080970D01*
X155178496Y-126080990D01*
X155181884Y-126087988D01*
X155181927Y-126087967D01*
X155185168Y-126094421D01*
X155221065Y-126149000D01*
X155227833Y-126159289D01*
X155268570Y-126225335D01*
X155268572Y-126225337D01*
X155273051Y-126231002D01*
X155273013Y-126231031D01*
X155277920Y-126237056D01*
X155277957Y-126237026D01*
X155282602Y-126242562D01*
X155339082Y-126295847D01*
X155633112Y-126589877D01*
X155644893Y-126603509D01*
X155659447Y-126623058D01*
X155689723Y-126648463D01*
X155699921Y-126657020D01*
X155703911Y-126660676D01*
X155709815Y-126666580D01*
X155712924Y-126669038D01*
X155735813Y-126687137D01*
X155765544Y-126712084D01*
X155795276Y-126737032D01*
X155795278Y-126737033D01*
X155801312Y-126741002D01*
X155801285Y-126741042D01*
X155807841Y-126745219D01*
X155807867Y-126745178D01*
X155814013Y-126748969D01*
X155883637Y-126781435D01*
X155884375Y-126781779D01*
X155953728Y-126816609D01*
X155953735Y-126816610D01*
X155960518Y-126819080D01*
X155960500Y-126819126D01*
X155967840Y-126821677D01*
X155967856Y-126821632D01*
X155974705Y-126823902D01*
X155974710Y-126823903D01*
X156050766Y-126839607D01*
X156110025Y-126853652D01*
X156126255Y-126857499D01*
X156126256Y-126857499D01*
X156126260Y-126857500D01*
X156126264Y-126857500D01*
X156133433Y-126858338D01*
X156133427Y-126858386D01*
X156141158Y-126859177D01*
X156141163Y-126859130D01*
X156148353Y-126859759D01*
X156148357Y-126859758D01*
X156148358Y-126859759D01*
X156225996Y-126857500D01*
X160299634Y-126857500D01*
X160317604Y-126858809D01*
X160320102Y-126859174D01*
X160341717Y-126862341D01*
X160394354Y-126857735D01*
X160399756Y-126857500D01*
X160408103Y-126857500D01*
X160408108Y-126857500D01*
X160431763Y-126854734D01*
X160441024Y-126853652D01*
X160518347Y-126846888D01*
X160518350Y-126846887D01*
X160518354Y-126846887D01*
X160518357Y-126846885D01*
X160525421Y-126845427D01*
X160525430Y-126845474D01*
X160533025Y-126843790D01*
X160533015Y-126843744D01*
X160540035Y-126842079D01*
X160540041Y-126842079D01*
X160612993Y-126815526D01*
X160686666Y-126791114D01*
X160686674Y-126791108D01*
X160693212Y-126788061D01*
X160693233Y-126788106D01*
X160700230Y-126784719D01*
X160700208Y-126784675D01*
X160706657Y-126781436D01*
X160706656Y-126781436D01*
X160706660Y-126781435D01*
X160771533Y-126738766D01*
X160837579Y-126698030D01*
X160837583Y-126698025D01*
X160843247Y-126693548D01*
X160843278Y-126693587D01*
X160849302Y-126688680D01*
X160849270Y-126688642D01*
X160854792Y-126684007D01*
X160854802Y-126684001D01*
X160882873Y-126654247D01*
X160908091Y-126627518D01*
X161578119Y-125957490D01*
X161639442Y-125924005D01*
X161709134Y-125928989D01*
X161765067Y-125970861D01*
X161789484Y-126036325D01*
X161789800Y-126045171D01*
X161789800Y-132131006D01*
X161788491Y-132148976D01*
X161784958Y-132173091D01*
X161789564Y-132225720D01*
X161789800Y-132231127D01*
X161789800Y-132239478D01*
X161793647Y-132272396D01*
X161800412Y-132349727D01*
X161801872Y-132356794D01*
X161801826Y-132356803D01*
X161803509Y-132364394D01*
X161803554Y-132364384D01*
X161805219Y-132371410D01*
X161821090Y-132415013D01*
X161831773Y-132444365D01*
X161853636Y-132510344D01*
X161856186Y-132518037D01*
X161859240Y-132524586D01*
X161859196Y-132524606D01*
X161862584Y-132531604D01*
X161862627Y-132531583D01*
X161865868Y-132538037D01*
X161897498Y-132586128D01*
X161908533Y-132602905D01*
X161949270Y-132668951D01*
X161949272Y-132668953D01*
X161953751Y-132674618D01*
X161953713Y-132674647D01*
X161958620Y-132680672D01*
X161958657Y-132680642D01*
X161963302Y-132686178D01*
X162019782Y-132739463D01*
X162434474Y-133154155D01*
X162467959Y-133215478D01*
X162467684Y-133269429D01*
X162419592Y-133480133D01*
X162400793Y-133730995D01*
X162400793Y-133731004D01*
X162419592Y-133981866D01*
X162475570Y-134227122D01*
X162475573Y-134227134D01*
X162567483Y-134461316D01*
X162693269Y-134679184D01*
X162850122Y-134875872D01*
X163034538Y-135046984D01*
X163242397Y-135188700D01*
X163469055Y-135297853D01*
X163709451Y-135372005D01*
X163709452Y-135372005D01*
X163709455Y-135372006D01*
X163958206Y-135409499D01*
X163958211Y-135409499D01*
X163958214Y-135409500D01*
X163958215Y-135409500D01*
X164209785Y-135409500D01*
X164209786Y-135409500D01*
X164209793Y-135409499D01*
X164458544Y-135372006D01*
X164458545Y-135372005D01*
X164458549Y-135372005D01*
X164698945Y-135297853D01*
X164925604Y-135188700D01*
X165133462Y-135046984D01*
X165317878Y-134875872D01*
X165474731Y-134679184D01*
X165600517Y-134461316D01*
X165692427Y-134227134D01*
X165748407Y-133981869D01*
X165767207Y-133731000D01*
X165748407Y-133480131D01*
X165692427Y-133234866D01*
X165600517Y-133000684D01*
X165474731Y-132782816D01*
X165317878Y-132586128D01*
X165304397Y-132573620D01*
X165275693Y-132546986D01*
X165133462Y-132415016D01*
X164925604Y-132273300D01*
X164925603Y-132273299D01*
X164925596Y-132273295D01*
X164698947Y-132164148D01*
X164698949Y-132164148D01*
X164458550Y-132089995D01*
X164458544Y-132089993D01*
X164209793Y-132052500D01*
X164209786Y-132052500D01*
X163958214Y-132052500D01*
X163958206Y-132052500D01*
X163709453Y-132089994D01*
X163709447Y-132089995D01*
X163632752Y-132113652D01*
X163562889Y-132114602D01*
X163508523Y-132082842D01*
X163343119Y-131917438D01*
X163309634Y-131856115D01*
X163306800Y-131829757D01*
X163306800Y-125367063D01*
X163326485Y-125300024D01*
X163365701Y-125261525D01*
X163421952Y-125226830D01*
X163547330Y-125101452D01*
X163640415Y-124950538D01*
X163696187Y-124782226D01*
X163706800Y-124678345D01*
X163706799Y-123506693D01*
X163726484Y-123439655D01*
X163779287Y-123393900D01*
X163830799Y-123382694D01*
X166007226Y-123382694D01*
X166074265Y-123402379D01*
X166120020Y-123455183D01*
X166130515Y-123493439D01*
X166134810Y-123533395D01*
X166134811Y-123533398D01*
X166184046Y-123665398D01*
X166185911Y-123670398D01*
X166273539Y-123787455D01*
X166390596Y-123875083D01*
X166505749Y-123918033D01*
X166526081Y-123925617D01*
X166527599Y-123926183D01*
X166554850Y-123929112D01*
X166588145Y-123932693D01*
X166588162Y-123932694D01*
X167621257Y-123932694D01*
X167688296Y-123952379D01*
X167708938Y-123969013D01*
X168289181Y-124549256D01*
X168322666Y-124610579D01*
X168325500Y-124636937D01*
X168325500Y-129655365D01*
X168305815Y-129722404D01*
X168255303Y-129767084D01*
X168242406Y-129773294D01*
X168242403Y-129773296D01*
X168034537Y-129915016D01*
X167850123Y-130086126D01*
X167850122Y-130086128D01*
X167693269Y-130282816D01*
X167567483Y-130500683D01*
X167475575Y-130734860D01*
X167475570Y-130734877D01*
X167419592Y-130980133D01*
X167400793Y-131230995D01*
X167400793Y-131231004D01*
X167419592Y-131481866D01*
X167475570Y-131727122D01*
X167475573Y-131727134D01*
X167567483Y-131961316D01*
X167693269Y-132179184D01*
X167850122Y-132375872D01*
X168034538Y-132546984D01*
X168242397Y-132688700D01*
X168469055Y-132797853D01*
X168709451Y-132872005D01*
X168709452Y-132872005D01*
X168709455Y-132872006D01*
X168958206Y-132909499D01*
X168958211Y-132909499D01*
X168958214Y-132909500D01*
X168958215Y-132909500D01*
X169209785Y-132909500D01*
X169209786Y-132909500D01*
X169209793Y-132909499D01*
X169458544Y-132872006D01*
X169458545Y-132872005D01*
X169458549Y-132872005D01*
X169698945Y-132797853D01*
X169925604Y-132688700D01*
X170133462Y-132546984D01*
X170317878Y-132375872D01*
X170474731Y-132179184D01*
X170600517Y-131961316D01*
X170692427Y-131727134D01*
X170748407Y-131481869D01*
X170767207Y-131231000D01*
X170764209Y-131191000D01*
X170748407Y-130980133D01*
X170740718Y-130946445D01*
X170692427Y-130734866D01*
X170600517Y-130500684D01*
X170474731Y-130282816D01*
X170317878Y-130086128D01*
X170317273Y-130085567D01*
X170264787Y-130036867D01*
X170133462Y-129915016D01*
X170073134Y-129873885D01*
X169925607Y-129773302D01*
X169925598Y-129773296D01*
X169912694Y-129767082D01*
X169860836Y-129720258D01*
X169842500Y-129655364D01*
X169842500Y-124335688D01*
X169843809Y-124317718D01*
X169846493Y-124299393D01*
X169847341Y-124293605D01*
X169842735Y-124240967D01*
X169842500Y-124235566D01*
X169842500Y-124227218D01*
X169842499Y-124227207D01*
X169838652Y-124194297D01*
X169832255Y-124121171D01*
X169831887Y-124116968D01*
X169831885Y-124116964D01*
X169830427Y-124109897D01*
X169830473Y-124109887D01*
X169828790Y-124102296D01*
X169828744Y-124102308D01*
X169827080Y-124095289D01*
X169827079Y-124095281D01*
X169800526Y-124022328D01*
X169776114Y-123948656D01*
X169776112Y-123948652D01*
X169773061Y-123942109D01*
X169773105Y-123942088D01*
X169769717Y-123935089D01*
X169769674Y-123935111D01*
X169766436Y-123928663D01*
X169723766Y-123863788D01*
X169683030Y-123797743D01*
X169678553Y-123792081D01*
X169678590Y-123792050D01*
X169673681Y-123786023D01*
X169673645Y-123786054D01*
X169669005Y-123780525D01*
X169669003Y-123780523D01*
X169669001Y-123780520D01*
X169632200Y-123745800D01*
X169612517Y-123727229D01*
X168781619Y-122896331D01*
X168748134Y-122835008D01*
X168745300Y-122808650D01*
X168745300Y-121775556D01*
X168745299Y-121775539D01*
X168741957Y-121744464D01*
X168738789Y-121714993D01*
X168687689Y-121577990D01*
X168600061Y-121460933D01*
X168483004Y-121373305D01*
X168469457Y-121368252D01*
X168339806Y-121319893D01*
X168283873Y-121278021D01*
X168259457Y-121212556D01*
X168274310Y-121144284D01*
X168295454Y-121116037D01*
X168442998Y-120968494D01*
X168574323Y-120780943D01*
X168671084Y-120573437D01*
X168730343Y-120352281D01*
X168750298Y-120124194D01*
X168735963Y-119960350D01*
X168749729Y-119891852D01*
X168771807Y-119861866D01*
X169376880Y-119256793D01*
X169390506Y-119245017D01*
X169410058Y-119230463D01*
X169410060Y-119230461D01*
X169444015Y-119189994D01*
X169447675Y-119185999D01*
X169453580Y-119180095D01*
X169474136Y-119154097D01*
X169524032Y-119094634D01*
X169524033Y-119094633D01*
X169528003Y-119088597D01*
X169528044Y-119088624D01*
X169532219Y-119082070D01*
X169532177Y-119082044D01*
X169535963Y-119075904D01*
X169535967Y-119075900D01*
X169568775Y-119005540D01*
X169603609Y-118936182D01*
X169603611Y-118936173D01*
X169606080Y-118929393D01*
X169606126Y-118929410D01*
X169608678Y-118922069D01*
X169608631Y-118922054D01*
X169610901Y-118915204D01*
X169610902Y-118915201D01*
X169626600Y-118839171D01*
X169644500Y-118763650D01*
X169644500Y-118763648D01*
X169644501Y-118763644D01*
X169645339Y-118756477D01*
X169645386Y-118756482D01*
X169646176Y-118748751D01*
X169646129Y-118748747D01*
X169646758Y-118741556D01*
X169644500Y-118663948D01*
X169644500Y-110784293D01*
X169645809Y-110766322D01*
X169646870Y-110759081D01*
X169649341Y-110742211D01*
X169648606Y-110733812D01*
X169644736Y-110689572D01*
X169644500Y-110684166D01*
X169644500Y-110675824D01*
X169644499Y-110675813D01*
X169640652Y-110642904D01*
X169638960Y-110623572D01*
X169633887Y-110565573D01*
X169633885Y-110565568D01*
X169632427Y-110558504D01*
X169632475Y-110558493D01*
X169630794Y-110550909D01*
X169630746Y-110550921D01*
X169629079Y-110543893D01*
X169629079Y-110543887D01*
X169602530Y-110470944D01*
X169578114Y-110397261D01*
X169578112Y-110397257D01*
X169575060Y-110390712D01*
X169575104Y-110390691D01*
X169571720Y-110383701D01*
X169571676Y-110383724D01*
X169568438Y-110377278D01*
X169568435Y-110377268D01*
X169525771Y-110312400D01*
X169485030Y-110246349D01*
X169485025Y-110246344D01*
X169480552Y-110240686D01*
X169480590Y-110240655D01*
X169475681Y-110234629D01*
X169475645Y-110234660D01*
X169471005Y-110229131D01*
X169471003Y-110229129D01*
X169471001Y-110229126D01*
X169439891Y-110199775D01*
X169414517Y-110175835D01*
X168980819Y-109742137D01*
X168947334Y-109680814D01*
X168944500Y-109654456D01*
X168944500Y-108121362D01*
X168944499Y-108121345D01*
X168941157Y-108090270D01*
X168937989Y-108060799D01*
X168936545Y-108056928D01*
X168905944Y-107974884D01*
X168886889Y-107923796D01*
X168799261Y-107806739D01*
X168682204Y-107719111D01*
X168545203Y-107668011D01*
X168484654Y-107661500D01*
X168484638Y-107661500D01*
X166287362Y-107661500D01*
X166287345Y-107661500D01*
X166226797Y-107668011D01*
X166226795Y-107668011D01*
X166089795Y-107719111D01*
X165972739Y-107806739D01*
X165885111Y-107923795D01*
X165834011Y-108060795D01*
X165834011Y-108060797D01*
X165827500Y-108121345D01*
X165827500Y-108184500D01*
X165807815Y-108251539D01*
X165755011Y-108297294D01*
X165703500Y-108308500D01*
X163797263Y-108308500D01*
X163730224Y-108288815D01*
X163691726Y-108249599D01*
X163657030Y-108193348D01*
X163531652Y-108067970D01*
X163380738Y-107974885D01*
X163380735Y-107974884D01*
X163212427Y-107919113D01*
X163108545Y-107908500D01*
X161757462Y-107908500D01*
X161757446Y-107908501D01*
X161653572Y-107919113D01*
X161485264Y-107974884D01*
X161485259Y-107974886D01*
X161334346Y-108067971D01*
X161208971Y-108193346D01*
X161115886Y-108344259D01*
X161115884Y-108344264D01*
X161060113Y-108512572D01*
X161049500Y-108616447D01*
X161049500Y-109517537D01*
X161049501Y-109517553D01*
X161060113Y-109621427D01*
X161100112Y-109742137D01*
X161115885Y-109789738D01*
X161208970Y-109940652D01*
X161334348Y-110066030D01*
X161485262Y-110159115D01*
X161653574Y-110214887D01*
X161757455Y-110225500D01*
X163108544Y-110225499D01*
X163212426Y-110214887D01*
X163380738Y-110159115D01*
X163531652Y-110066030D01*
X163657030Y-109940652D01*
X163691726Y-109884400D01*
X163743672Y-109837679D01*
X163797263Y-109825500D01*
X165703500Y-109825500D01*
X165770539Y-109845185D01*
X165816294Y-109897989D01*
X165827500Y-109949500D01*
X165827500Y-110318654D01*
X165834011Y-110379202D01*
X165834011Y-110379204D01*
X165877986Y-110497101D01*
X165885111Y-110516204D01*
X165972739Y-110633261D01*
X166071872Y-110707471D01*
X166078236Y-110712235D01*
X166120107Y-110768169D01*
X166125091Y-110837861D01*
X166109653Y-110876291D01*
X166000667Y-111054140D01*
X165907303Y-111279542D01*
X165850348Y-111516780D01*
X165831207Y-111760000D01*
X165850348Y-112003219D01*
X165907303Y-112240457D01*
X166000668Y-112465861D01*
X166124504Y-112667942D01*
X166860070Y-111932376D01*
X166862884Y-111945915D01*
X166932442Y-112080156D01*
X167035638Y-112190652D01*
X167164819Y-112269209D01*
X167216001Y-112283549D01*
X166478056Y-113021494D01*
X166680138Y-113145331D01*
X166905542Y-113238696D01*
X167142780Y-113295651D01*
X167142779Y-113295651D01*
X167386000Y-113314792D01*
X167629219Y-113295651D01*
X167866457Y-113238696D01*
X167956047Y-113201587D01*
X168025516Y-113194118D01*
X168087996Y-113225393D01*
X168123648Y-113285482D01*
X168127500Y-113316148D01*
X168127500Y-118309450D01*
X168107815Y-118376489D01*
X168091181Y-118397131D01*
X167699129Y-118789182D01*
X167637806Y-118822667D01*
X167600641Y-118825029D01*
X167436802Y-118810696D01*
X167436798Y-118810696D01*
X167208718Y-118830650D01*
X167208710Y-118830651D01*
X166987561Y-118889908D01*
X166987550Y-118889912D01*
X166780054Y-118986669D01*
X166780052Y-118986670D01*
X166752082Y-119006255D01*
X166592500Y-119117996D01*
X166592498Y-119117997D01*
X166592495Y-119118000D01*
X166430606Y-119279889D01*
X166430603Y-119279892D01*
X166430602Y-119279894D01*
X166373505Y-119361437D01*
X166299276Y-119467446D01*
X166299275Y-119467448D01*
X166202518Y-119674944D01*
X166202514Y-119674955D01*
X166143257Y-119896104D01*
X166143256Y-119896112D01*
X166123302Y-120124192D01*
X166123302Y-120124195D01*
X166143256Y-120352275D01*
X166143257Y-120352283D01*
X166202514Y-120573432D01*
X166202518Y-120573443D01*
X166277125Y-120733438D01*
X166299277Y-120780943D01*
X166430602Y-120968494D01*
X166430606Y-120968498D01*
X166578139Y-121116031D01*
X166611624Y-121177354D01*
X166606640Y-121247046D01*
X166564768Y-121302979D01*
X166533793Y-121319893D01*
X166390595Y-121373305D01*
X166273539Y-121460933D01*
X166185911Y-121577989D01*
X166134811Y-121714989D01*
X166134810Y-121714992D01*
X166130515Y-121754949D01*
X166103777Y-121819500D01*
X166046385Y-121859349D01*
X166007226Y-121865694D01*
X161430800Y-121865694D01*
X161363761Y-121846009D01*
X161318006Y-121793205D01*
X161306800Y-121741694D01*
X161306800Y-119310065D01*
X161308109Y-119292094D01*
X161309897Y-119279889D01*
X161311641Y-119267983D01*
X161310103Y-119250408D01*
X161307036Y-119215350D01*
X161306800Y-119209943D01*
X161306800Y-119201596D01*
X161306799Y-119201585D01*
X161305965Y-119194454D01*
X161302952Y-119168677D01*
X161296187Y-119091345D01*
X161296185Y-119091340D01*
X161294727Y-119084276D01*
X161294775Y-119084265D01*
X161293094Y-119076681D01*
X161293046Y-119076693D01*
X161291379Y-119069665D01*
X161291379Y-119069659D01*
X161274492Y-119023264D01*
X161264830Y-118996715D01*
X161242931Y-118930630D01*
X161240414Y-118923033D01*
X161240412Y-118923029D01*
X161237360Y-118916484D01*
X161237404Y-118916463D01*
X161234020Y-118909473D01*
X161233976Y-118909496D01*
X161230738Y-118903050D01*
X161230735Y-118903040D01*
X161188071Y-118838172D01*
X161147330Y-118772121D01*
X161147325Y-118772116D01*
X161142852Y-118766458D01*
X161142890Y-118766427D01*
X161137981Y-118760401D01*
X161137945Y-118760432D01*
X161133305Y-118754903D01*
X161133303Y-118754901D01*
X161133301Y-118754898D01*
X161102191Y-118725547D01*
X161076817Y-118701607D01*
X157141132Y-114765923D01*
X157129350Y-114752290D01*
X157114800Y-114732746D01*
X157114799Y-114732745D01*
X157114797Y-114732742D01*
X157109482Y-114728282D01*
X157074315Y-114698772D01*
X157070326Y-114695117D01*
X157064430Y-114689221D01*
X157064429Y-114689220D01*
X157042397Y-114671799D01*
X157038430Y-114668662D01*
X156978970Y-114618770D01*
X156978968Y-114618768D01*
X156978963Y-114618765D01*
X156972933Y-114614799D01*
X156972958Y-114614759D01*
X156966397Y-114610579D01*
X156966373Y-114610620D01*
X156960232Y-114606831D01*
X156889868Y-114574020D01*
X156820513Y-114539189D01*
X156813729Y-114536720D01*
X156813744Y-114536676D01*
X156806399Y-114534122D01*
X156806385Y-114534167D01*
X156799533Y-114531896D01*
X156761505Y-114524044D01*
X156723477Y-114516192D01*
X156647984Y-114498300D01*
X156647982Y-114498300D01*
X156647974Y-114498298D01*
X156640810Y-114497461D01*
X156640815Y-114497412D01*
X156633085Y-114496622D01*
X156633081Y-114496670D01*
X156625890Y-114496040D01*
X156548248Y-114498300D01*
X149106994Y-114498300D01*
X149089024Y-114496991D01*
X149064906Y-114493458D01*
X149019729Y-114497412D01*
X149012273Y-114498064D01*
X149006872Y-114498300D01*
X148998519Y-114498300D01*
X148965603Y-114502147D01*
X148888274Y-114508912D01*
X148881206Y-114510372D01*
X148881196Y-114510328D01*
X148873606Y-114512010D01*
X148873617Y-114512054D01*
X148866593Y-114513719D01*
X148866587Y-114513720D01*
X148866587Y-114513721D01*
X148866200Y-114513862D01*
X148793633Y-114540273D01*
X148719957Y-114564687D01*
X148713420Y-114567736D01*
X148713400Y-114567694D01*
X148706396Y-114571085D01*
X148706417Y-114571126D01*
X148699969Y-114574364D01*
X148635094Y-114617033D01*
X148569052Y-114657767D01*
X148563383Y-114662250D01*
X148563353Y-114662213D01*
X148557327Y-114667122D01*
X148557357Y-114667157D01*
X148551832Y-114671793D01*
X148498536Y-114728282D01*
X148064837Y-115161981D01*
X148003514Y-115195466D01*
X147977156Y-115198300D01*
X147908243Y-115198300D01*
X147841204Y-115178615D01*
X147820562Y-115161981D01*
X145075581Y-112417000D01*
X161058001Y-112417000D01*
X161058001Y-112616986D01*
X161068494Y-112719697D01*
X161123641Y-112886119D01*
X161123643Y-112886124D01*
X161215684Y-113035345D01*
X161339654Y-113159315D01*
X161488875Y-113251356D01*
X161488880Y-113251358D01*
X161655302Y-113306505D01*
X161655309Y-113306506D01*
X161758019Y-113316999D01*
X162182999Y-113316999D01*
X162183000Y-113316998D01*
X162183000Y-112417000D01*
X162683000Y-112417000D01*
X162683000Y-113316999D01*
X163107972Y-113316999D01*
X163107986Y-113316998D01*
X163210697Y-113306505D01*
X163377119Y-113251358D01*
X163377124Y-113251356D01*
X163526345Y-113159315D01*
X163650315Y-113035345D01*
X163742356Y-112886124D01*
X163742358Y-112886119D01*
X163797505Y-112719697D01*
X163797506Y-112719690D01*
X163807999Y-112616986D01*
X163808000Y-112616973D01*
X163808000Y-112417000D01*
X162683000Y-112417000D01*
X162183000Y-112417000D01*
X161058001Y-112417000D01*
X145075581Y-112417000D01*
X144660419Y-112001838D01*
X144626934Y-111940515D01*
X144624406Y-111917000D01*
X161058000Y-111917000D01*
X162183000Y-111917000D01*
X162183000Y-111017000D01*
X162683000Y-111017000D01*
X162683000Y-111917000D01*
X163807999Y-111917000D01*
X163807999Y-111717028D01*
X163807998Y-111717013D01*
X163797505Y-111614302D01*
X163742358Y-111447880D01*
X163742356Y-111447875D01*
X163650315Y-111298654D01*
X163526345Y-111174684D01*
X163377124Y-111082643D01*
X163377119Y-111082641D01*
X163210697Y-111027494D01*
X163210690Y-111027493D01*
X163107986Y-111017000D01*
X162683000Y-111017000D01*
X162183000Y-111017000D01*
X161758028Y-111017000D01*
X161758012Y-111017001D01*
X161655302Y-111027494D01*
X161488880Y-111082641D01*
X161488875Y-111082643D01*
X161339654Y-111174684D01*
X161215684Y-111298654D01*
X161123643Y-111447875D01*
X161123641Y-111447880D01*
X161068494Y-111614302D01*
X161068493Y-111614309D01*
X161058000Y-111717013D01*
X161058000Y-111917000D01*
X144624406Y-111917000D01*
X144624100Y-111914157D01*
X144624100Y-110954374D01*
X144643785Y-110887335D01*
X144696589Y-110841580D01*
X144734845Y-110831085D01*
X144774801Y-110826789D01*
X144774804Y-110826788D01*
X144797448Y-110818342D01*
X144911804Y-110775689D01*
X145028861Y-110688061D01*
X145116489Y-110571004D01*
X145167589Y-110434001D01*
X145172245Y-110390691D01*
X145174099Y-110373454D01*
X145174100Y-110373437D01*
X145174100Y-109982002D01*
X149807229Y-109982002D01*
X149827053Y-110208599D01*
X149827055Y-110208610D01*
X149885925Y-110428317D01*
X149885929Y-110428326D01*
X149982060Y-110634481D01*
X149982061Y-110634483D01*
X150033168Y-110707471D01*
X150033169Y-110707472D01*
X150714241Y-110026399D01*
X150727030Y-110107148D01*
X150784554Y-110220045D01*
X150874150Y-110309641D01*
X150987047Y-110367165D01*
X151067794Y-110379953D01*
X150386721Y-111061025D01*
X150386721Y-111061026D01*
X150459707Y-111112131D01*
X150459711Y-111112133D01*
X150665868Y-111208265D01*
X150665877Y-111208269D01*
X150885584Y-111267139D01*
X150885595Y-111267141D01*
X151112193Y-111286966D01*
X151112197Y-111286966D01*
X151338794Y-111267141D01*
X151338805Y-111267139D01*
X151558512Y-111208269D01*
X151558526Y-111208264D01*
X151764673Y-111112136D01*
X151837667Y-111061025D01*
X151156596Y-110379953D01*
X151237343Y-110367165D01*
X151350240Y-110309641D01*
X151439836Y-110220045D01*
X151497360Y-110107148D01*
X151510148Y-110026400D01*
X152199282Y-110715534D01*
X152237387Y-110723192D01*
X152287570Y-110771807D01*
X152302230Y-110827399D01*
X152303235Y-110827346D01*
X152303339Y-110827335D01*
X152303339Y-110827340D01*
X152303518Y-110827331D01*
X152303695Y-110830654D01*
X152310206Y-110891202D01*
X152310206Y-110891204D01*
X152344679Y-110983627D01*
X152361306Y-111028204D01*
X152448934Y-111145261D01*
X152565991Y-111232889D01*
X152702994Y-111283989D01*
X152730245Y-111286918D01*
X152763540Y-111290499D01*
X152763557Y-111290500D01*
X154460833Y-111290500D01*
X154460849Y-111290499D01*
X154487887Y-111287591D01*
X154521396Y-111283989D01*
X154658399Y-111232889D01*
X154775456Y-111145261D01*
X154863084Y-111028204D01*
X154914184Y-110891201D01*
X154917786Y-110857692D01*
X154920694Y-110830654D01*
X154920695Y-110830637D01*
X154920695Y-109133362D01*
X154920694Y-109133345D01*
X154917352Y-109102270D01*
X154914184Y-109072799D01*
X154863084Y-108935796D01*
X154775456Y-108818739D01*
X154658399Y-108731111D01*
X154521398Y-108680011D01*
X154460849Y-108673500D01*
X154460833Y-108673500D01*
X152763557Y-108673500D01*
X152763540Y-108673500D01*
X152702992Y-108680011D01*
X152702990Y-108680011D01*
X152565990Y-108731111D01*
X152448934Y-108818739D01*
X152361306Y-108935795D01*
X152310206Y-109072795D01*
X152310206Y-109072797D01*
X152303695Y-109133345D01*
X152303518Y-109136669D01*
X152303339Y-109136659D01*
X152303339Y-109136665D01*
X152303235Y-109136653D01*
X152302066Y-109136591D01*
X152284010Y-109198083D01*
X152231206Y-109243838D01*
X152198228Y-109249518D01*
X151510148Y-109937598D01*
X151497360Y-109856852D01*
X151439836Y-109743955D01*
X151350240Y-109654359D01*
X151237343Y-109596835D01*
X151156595Y-109584046D01*
X151837667Y-108902974D01*
X151837666Y-108902973D01*
X151764678Y-108851866D01*
X151764676Y-108851865D01*
X151558521Y-108755734D01*
X151558512Y-108755730D01*
X151338805Y-108696860D01*
X151338794Y-108696858D01*
X151112197Y-108677034D01*
X151112193Y-108677034D01*
X150885595Y-108696858D01*
X150885584Y-108696860D01*
X150665877Y-108755730D01*
X150665868Y-108755734D01*
X150459708Y-108851868D01*
X150386722Y-108902972D01*
X150386721Y-108902973D01*
X151067795Y-109584046D01*
X150987047Y-109596835D01*
X150874150Y-109654359D01*
X150784554Y-109743955D01*
X150727030Y-109856852D01*
X150714241Y-109937599D01*
X150033168Y-109256526D01*
X150033167Y-109256527D01*
X149982063Y-109329513D01*
X149885929Y-109535673D01*
X149885925Y-109535682D01*
X149827055Y-109755389D01*
X149827053Y-109755400D01*
X149807229Y-109981997D01*
X149807229Y-109982002D01*
X145174100Y-109982002D01*
X145174100Y-108676162D01*
X145174099Y-108676145D01*
X145170757Y-108645070D01*
X145167589Y-108615599D01*
X145116489Y-108478596D01*
X145028861Y-108361539D01*
X144911804Y-108273911D01*
X144774803Y-108222811D01*
X144714254Y-108216300D01*
X144714238Y-108216300D01*
X143016962Y-108216300D01*
X143016945Y-108216300D01*
X142956397Y-108222811D01*
X142956395Y-108222811D01*
X142819395Y-108273911D01*
X142702339Y-108361539D01*
X142614711Y-108478595D01*
X142561299Y-108621793D01*
X142519427Y-108677726D01*
X142453962Y-108702142D01*
X142385690Y-108687289D01*
X142357437Y-108666139D01*
X142209904Y-108518606D01*
X142209900Y-108518602D01*
X142022349Y-108387277D01*
X142022345Y-108387275D01*
X141814849Y-108290518D01*
X141814838Y-108290514D01*
X141593689Y-108231257D01*
X141593681Y-108231256D01*
X141365602Y-108211302D01*
X141365598Y-108211302D01*
X141137518Y-108231256D01*
X141137510Y-108231257D01*
X140916361Y-108290514D01*
X140916350Y-108290518D01*
X140708854Y-108387275D01*
X140708852Y-108387276D01*
X140708851Y-108387277D01*
X140521300Y-108518602D01*
X140521298Y-108518603D01*
X140521295Y-108518606D01*
X140359406Y-108680495D01*
X140359403Y-108680498D01*
X140359402Y-108680500D01*
X140277367Y-108797656D01*
X140228076Y-108868052D01*
X140228075Y-108868054D01*
X140131318Y-109075550D01*
X140131314Y-109075561D01*
X140072057Y-109296710D01*
X140072056Y-109296718D01*
X140052102Y-109524798D01*
X140052102Y-109524801D01*
X135542322Y-109524801D01*
X135529072Y-109356443D01*
X135471805Y-109117908D01*
X135416257Y-108983805D01*
X135377928Y-108891269D01*
X135249753Y-108682106D01*
X135249752Y-108682104D01*
X135090433Y-108495567D01*
X134903896Y-108336248D01*
X134903893Y-108336246D01*
X134694730Y-108208071D01*
X134468087Y-108114193D01*
X134229553Y-108056927D01*
X134229554Y-108056927D01*
X133985000Y-108037681D01*
X133740445Y-108056927D01*
X133501912Y-108114193D01*
X133275269Y-108208071D01*
X133066106Y-108336246D01*
X132879567Y-108495567D01*
X132720246Y-108682106D01*
X132592071Y-108891269D01*
X132498193Y-109117912D01*
X132440927Y-109356445D01*
X132421681Y-109601000D01*
X129844500Y-109601000D01*
X129844500Y-101210563D01*
X135480987Y-101210563D01*
X135510613Y-101479813D01*
X135510615Y-101479824D01*
X135571760Y-101713705D01*
X135579128Y-101741888D01*
X135685070Y-101991190D01*
X135747076Y-102092790D01*
X135826179Y-102222405D01*
X135826186Y-102222415D01*
X135999453Y-102430619D01*
X135999459Y-102430624D01*
X136112848Y-102532220D01*
X136201198Y-102611382D01*
X136427110Y-102760844D01*
X136672376Y-102875820D01*
X136672383Y-102875822D01*
X136672385Y-102875823D01*
X136931757Y-102953857D01*
X136931764Y-102953858D01*
X136931769Y-102953860D01*
X137199761Y-102993300D01*
X137199766Y-102993300D01*
X137402836Y-102993300D01*
X137454333Y-102989530D01*
X137605356Y-102978477D01*
X137717958Y-102953393D01*
X137869746Y-102919582D01*
X137869748Y-102919581D01*
X137869753Y-102919580D01*
X138122758Y-102822814D01*
X138358977Y-102690241D01*
X138573377Y-102524688D01*
X138761386Y-102329681D01*
X138918999Y-102109379D01*
X138992987Y-101965469D01*
X139042849Y-101868490D01*
X139042851Y-101868484D01*
X139042856Y-101868475D01*
X139130318Y-101612105D01*
X139179519Y-101345733D01*
X139180746Y-101312163D01*
X165480987Y-101312163D01*
X165510613Y-101581413D01*
X165510615Y-101581424D01*
X165552566Y-101741888D01*
X165579128Y-101843488D01*
X165685070Y-102092790D01*
X165826179Y-102324005D01*
X165826186Y-102324015D01*
X165999453Y-102532219D01*
X165999459Y-102532224D01*
X166201198Y-102712982D01*
X166427110Y-102862444D01*
X166672376Y-102977420D01*
X166672383Y-102977422D01*
X166672385Y-102977423D01*
X166931757Y-103055457D01*
X166931764Y-103055458D01*
X166931769Y-103055460D01*
X167199761Y-103094900D01*
X167199766Y-103094900D01*
X167402836Y-103094900D01*
X167454333Y-103091130D01*
X167605356Y-103080077D01*
X167717958Y-103054993D01*
X167869746Y-103021182D01*
X167869748Y-103021181D01*
X167869753Y-103021180D01*
X168122758Y-102924414D01*
X168358977Y-102791841D01*
X168573377Y-102626288D01*
X168761386Y-102431281D01*
X168918999Y-102210979D01*
X168992987Y-102067069D01*
X169042849Y-101970090D01*
X169042851Y-101970084D01*
X169042856Y-101970075D01*
X169130318Y-101713705D01*
X169179519Y-101447333D01*
X169189412Y-101176635D01*
X169159786Y-100907382D01*
X169091272Y-100645312D01*
X168985330Y-100396010D01*
X168844218Y-100164790D01*
X168843045Y-100163381D01*
X168670946Y-99956580D01*
X168670940Y-99956575D01*
X168469202Y-99775818D01*
X168243292Y-99626357D01*
X168177163Y-99595357D01*
X167998024Y-99511380D01*
X167998019Y-99511378D01*
X167998014Y-99511376D01*
X167738642Y-99433342D01*
X167738628Y-99433339D01*
X167622991Y-99416321D01*
X167470639Y-99393900D01*
X167267569Y-99393900D01*
X167267564Y-99393900D01*
X167065044Y-99408723D01*
X167065031Y-99408725D01*
X166800653Y-99467617D01*
X166800646Y-99467620D01*
X166547639Y-99564387D01*
X166311426Y-99696957D01*
X166097022Y-99862512D01*
X165909022Y-100057509D01*
X165909016Y-100057516D01*
X165751402Y-100277819D01*
X165751399Y-100277824D01*
X165627550Y-100518709D01*
X165627543Y-100518727D01*
X165540084Y-100775085D01*
X165540081Y-100775099D01*
X165490881Y-101041468D01*
X165490880Y-101041475D01*
X165480987Y-101312163D01*
X139180746Y-101312163D01*
X139189412Y-101075035D01*
X139159786Y-100805782D01*
X139091272Y-100543712D01*
X138985330Y-100294410D01*
X138844218Y-100063190D01*
X138754947Y-99955919D01*
X138670946Y-99854980D01*
X138670940Y-99854975D01*
X138469202Y-99674218D01*
X138243292Y-99524757D01*
X138214748Y-99511376D01*
X137998024Y-99409780D01*
X137998019Y-99409778D01*
X137998014Y-99409776D01*
X137738642Y-99331742D01*
X137738628Y-99331739D01*
X137622991Y-99314721D01*
X137470639Y-99292300D01*
X137267569Y-99292300D01*
X137267564Y-99292300D01*
X137065044Y-99307123D01*
X137065031Y-99307125D01*
X136800653Y-99366017D01*
X136800646Y-99366020D01*
X136547639Y-99462787D01*
X136311426Y-99595357D01*
X136097022Y-99760912D01*
X135909022Y-99955909D01*
X135909016Y-99955916D01*
X135751402Y-100176219D01*
X135751399Y-100176224D01*
X135627550Y-100417109D01*
X135627543Y-100417127D01*
X135540084Y-100673485D01*
X135540081Y-100673499D01*
X135521316Y-100775095D01*
X135496881Y-100907386D01*
X135490881Y-100939868D01*
X135490880Y-100939875D01*
X135480987Y-101210563D01*
X129844500Y-101210563D01*
X129844500Y-97913700D01*
X129864185Y-97846661D01*
X129916989Y-97800906D01*
X129968500Y-97789700D01*
X173764700Y-97789700D01*
X173831739Y-97809385D01*
G37*
%TD.AperFunction*%
%TD*%
M02*
